%TF.GenerationSoftware,KiCad,Pcbnew,(5.1.6)-1*%
%TF.CreationDate,2020-07-26T07:53:42+08:00*%
%TF.ProjectId,rot-kb,726f742d-6b62-42e6-9b69-6361645f7063,rev?*%
%TF.SameCoordinates,Original*%
%TF.FileFunction,Legend,Top*%
%TF.FilePolarity,Positive*%
%FSLAX46Y46*%
G04 Gerber Fmt 4.6, Leading zero omitted, Abs format (unit mm)*
G04 Created by KiCad (PCBNEW (5.1.6)-1) date 2020-07-26 07:53:42*
%MOMM*%
%LPD*%
G01*
G04 APERTURE LIST*
%ADD10C,0.150000*%
%ADD11C,0.250000*%
%ADD12C,0.120000*%
%ADD13C,0.127000*%
%ADD14R,1.000000X1.000000*%
%ADD15O,3.600000X1.800000*%
%ADD16R,2.000000X2.000000*%
%ADD17C,2.000000*%
%ADD18R,3.200000X2.000000*%
%ADD19C,0.900000*%
%ADD20C,8.600000*%
%ADD21R,2.200000X1.400000*%
%ADD22R,1.400000X1.800000*%
%ADD23R,1.600000X1.400000*%
%ADD24R,1.600000X0.700000*%
%ADD25O,1.700000X1.700000*%
%ADD26R,1.700000X1.700000*%
%ADD27O,1.727200X1.727200*%
%ADD28R,1.727200X1.727200*%
%ADD29O,2.032000X1.727200*%
%ADD30C,2.032000*%
G04 APERTURE END LIST*
D10*
X143518095Y-113244380D02*
X143518095Y-114053904D01*
X143565714Y-114149142D01*
X143613333Y-114196761D01*
X143708571Y-114244380D01*
X143899047Y-114244380D01*
X143994285Y-114196761D01*
X144041904Y-114149142D01*
X144089523Y-114053904D01*
X144089523Y-113244380D01*
X144518095Y-114196761D02*
X144660952Y-114244380D01*
X144899047Y-114244380D01*
X144994285Y-114196761D01*
X145041904Y-114149142D01*
X145089523Y-114053904D01*
X145089523Y-113958666D01*
X145041904Y-113863428D01*
X144994285Y-113815809D01*
X144899047Y-113768190D01*
X144708571Y-113720571D01*
X144613333Y-113672952D01*
X144565714Y-113625333D01*
X144518095Y-113530095D01*
X144518095Y-113434857D01*
X144565714Y-113339619D01*
X144613333Y-113292000D01*
X144708571Y-113244380D01*
X144946666Y-113244380D01*
X145089523Y-113292000D01*
X145851428Y-113720571D02*
X145994285Y-113768190D01*
X146041904Y-113815809D01*
X146089523Y-113911047D01*
X146089523Y-114053904D01*
X146041904Y-114149142D01*
X145994285Y-114196761D01*
X145899047Y-114244380D01*
X145518095Y-114244380D01*
X145518095Y-113244380D01*
X145851428Y-113244380D01*
X145946666Y-113292000D01*
X145994285Y-113339619D01*
X146041904Y-113434857D01*
X146041904Y-113530095D01*
X145994285Y-113625333D01*
X145946666Y-113672952D01*
X145851428Y-113720571D01*
X145518095Y-113720571D01*
X140970000Y-116332000D02*
X140970000Y-110998000D01*
X148336000Y-116332000D02*
X140970000Y-116332000D01*
X148336000Y-110998000D02*
X148336000Y-116332000D01*
X140970000Y-110998000D02*
X148336000Y-110998000D01*
D11*
X145488000Y-98681428D02*
X145488000Y-98110000D01*
X145830857Y-98795714D02*
X144630857Y-98395714D01*
X145830857Y-97995714D01*
X145830857Y-97595714D02*
X145030857Y-97595714D01*
X145259428Y-97595714D02*
X145145142Y-97538571D01*
X145088000Y-97481428D01*
X145030857Y-97367142D01*
X145030857Y-97252857D01*
X145830857Y-96338571D02*
X144630857Y-96338571D01*
X145773714Y-96338571D02*
X145830857Y-96452857D01*
X145830857Y-96681428D01*
X145773714Y-96795714D01*
X145716571Y-96852857D01*
X145602285Y-96910000D01*
X145259428Y-96910000D01*
X145145142Y-96852857D01*
X145088000Y-96795714D01*
X145030857Y-96681428D01*
X145030857Y-96452857D01*
X145088000Y-96338571D01*
X145030857Y-95252857D02*
X145830857Y-95252857D01*
X145030857Y-95767142D02*
X145659428Y-95767142D01*
X145773714Y-95710000D01*
X145830857Y-95595714D01*
X145830857Y-95424285D01*
X145773714Y-95310000D01*
X145716571Y-95252857D01*
X145830857Y-94681428D02*
X145030857Y-94681428D01*
X144630857Y-94681428D02*
X144688000Y-94738571D01*
X144745142Y-94681428D01*
X144688000Y-94624285D01*
X144630857Y-94681428D01*
X144745142Y-94681428D01*
X145030857Y-94110000D02*
X145830857Y-94110000D01*
X145145142Y-94110000D02*
X145088000Y-94052857D01*
X145030857Y-93938571D01*
X145030857Y-93767142D01*
X145088000Y-93652857D01*
X145202285Y-93595714D01*
X145830857Y-93595714D01*
X145830857Y-92852857D02*
X145773714Y-92967142D01*
X145716571Y-93024285D01*
X145602285Y-93081428D01*
X145259428Y-93081428D01*
X145145142Y-93024285D01*
X145088000Y-92967142D01*
X145030857Y-92852857D01*
X145030857Y-92681428D01*
X145088000Y-92567142D01*
X145145142Y-92510000D01*
X145259428Y-92452857D01*
X145602285Y-92452857D01*
X145716571Y-92510000D01*
X145773714Y-92567142D01*
X145830857Y-92681428D01*
X145830857Y-92852857D01*
X145830857Y-91024285D02*
X144630857Y-91024285D01*
X145488000Y-90624285D01*
X144630857Y-90224285D01*
X145830857Y-90224285D01*
X145830857Y-89652857D02*
X145030857Y-89652857D01*
X144630857Y-89652857D02*
X144688000Y-89710000D01*
X144745142Y-89652857D01*
X144688000Y-89595714D01*
X144630857Y-89652857D01*
X144745142Y-89652857D01*
X145773714Y-88567142D02*
X145830857Y-88681428D01*
X145830857Y-88910000D01*
X145773714Y-89024285D01*
X145716571Y-89081428D01*
X145602285Y-89138571D01*
X145259428Y-89138571D01*
X145145142Y-89081428D01*
X145088000Y-89024285D01*
X145030857Y-88910000D01*
X145030857Y-88681428D01*
X145088000Y-88567142D01*
X145830857Y-88052857D02*
X145030857Y-88052857D01*
X145259428Y-88052857D02*
X145145142Y-87995714D01*
X145088000Y-87938571D01*
X145030857Y-87824285D01*
X145030857Y-87710000D01*
X145830857Y-87138571D02*
X145773714Y-87252857D01*
X145716571Y-87310000D01*
X145602285Y-87367142D01*
X145259428Y-87367142D01*
X145145142Y-87310000D01*
X145088000Y-87252857D01*
X145030857Y-87138571D01*
X145030857Y-86967142D01*
X145088000Y-86852857D01*
X145145142Y-86795714D01*
X145259428Y-86738571D01*
X145602285Y-86738571D01*
X145716571Y-86795714D01*
X145773714Y-86852857D01*
X145830857Y-86967142D01*
X145830857Y-87138571D01*
D10*
X155392380Y-60167690D02*
X154392380Y-60167690D01*
X155106666Y-59834357D01*
X154392380Y-59501023D01*
X155392380Y-59501023D01*
X155392380Y-59024833D02*
X154725714Y-59024833D01*
X154392380Y-59024833D02*
X154440000Y-59072452D01*
X154487619Y-59024833D01*
X154440000Y-58977214D01*
X154392380Y-59024833D01*
X154487619Y-59024833D01*
X155344761Y-58120071D02*
X155392380Y-58215309D01*
X155392380Y-58405785D01*
X155344761Y-58501023D01*
X155297142Y-58548642D01*
X155201904Y-58596261D01*
X154916190Y-58596261D01*
X154820952Y-58548642D01*
X154773333Y-58501023D01*
X154725714Y-58405785D01*
X154725714Y-58215309D01*
X154773333Y-58120071D01*
X155392380Y-57691500D02*
X154725714Y-57691500D01*
X154916190Y-57691500D02*
X154820952Y-57643880D01*
X154773333Y-57596261D01*
X154725714Y-57501023D01*
X154725714Y-57405785D01*
X155392380Y-56929595D02*
X155344761Y-57024833D01*
X155297142Y-57072452D01*
X155201904Y-57120071D01*
X154916190Y-57120071D01*
X154820952Y-57072452D01*
X154773333Y-57024833D01*
X154725714Y-56929595D01*
X154725714Y-56786738D01*
X154773333Y-56691500D01*
X154820952Y-56643880D01*
X154916190Y-56596261D01*
X155201904Y-56596261D01*
X155297142Y-56643880D01*
X155344761Y-56691500D01*
X155392380Y-56786738D01*
X155392380Y-56929595D01*
X155344761Y-55453404D02*
X155392380Y-55310547D01*
X155392380Y-55072452D01*
X155344761Y-54977214D01*
X155297142Y-54929595D01*
X155201904Y-54881976D01*
X155106666Y-54881976D01*
X155011428Y-54929595D01*
X154963809Y-54977214D01*
X154916190Y-55072452D01*
X154868571Y-55262928D01*
X154820952Y-55358166D01*
X154773333Y-55405785D01*
X154678095Y-55453404D01*
X154582857Y-55453404D01*
X154487619Y-55405785D01*
X154440000Y-55358166D01*
X154392380Y-55262928D01*
X154392380Y-55024833D01*
X154440000Y-54881976D01*
X155392380Y-54453404D02*
X154392380Y-54453404D01*
X154392380Y-54215309D01*
X154440000Y-54072452D01*
X154535238Y-53977214D01*
X154630476Y-53929595D01*
X154820952Y-53881976D01*
X154963809Y-53881976D01*
X155154285Y-53929595D01*
X155249523Y-53977214D01*
X155344761Y-54072452D01*
X155392380Y-54215309D01*
X155392380Y-54453404D01*
D11*
X156489857Y-105942000D02*
X155918428Y-106342000D01*
X156489857Y-106627714D02*
X155289857Y-106627714D01*
X155289857Y-106170571D01*
X155347000Y-106056285D01*
X155404142Y-105999142D01*
X155518428Y-105942000D01*
X155689857Y-105942000D01*
X155804142Y-105999142D01*
X155861285Y-106056285D01*
X155918428Y-106170571D01*
X155918428Y-106627714D01*
X156489857Y-105256285D02*
X156432714Y-105370571D01*
X156375571Y-105427714D01*
X156261285Y-105484857D01*
X155918428Y-105484857D01*
X155804142Y-105427714D01*
X155747000Y-105370571D01*
X155689857Y-105256285D01*
X155689857Y-105084857D01*
X155747000Y-104970571D01*
X155804142Y-104913428D01*
X155918428Y-104856285D01*
X156261285Y-104856285D01*
X156375571Y-104913428D01*
X156432714Y-104970571D01*
X156489857Y-105084857D01*
X156489857Y-105256285D01*
X155689857Y-104513428D02*
X155689857Y-104056285D01*
X155289857Y-104342000D02*
X156318428Y-104342000D01*
X156432714Y-104284857D01*
X156489857Y-104170571D01*
X156489857Y-104056285D01*
X156489857Y-103142000D02*
X155861285Y-103142000D01*
X155747000Y-103199142D01*
X155689857Y-103313428D01*
X155689857Y-103542000D01*
X155747000Y-103656285D01*
X156432714Y-103142000D02*
X156489857Y-103256285D01*
X156489857Y-103542000D01*
X156432714Y-103656285D01*
X156318428Y-103713428D01*
X156204142Y-103713428D01*
X156089857Y-103656285D01*
X156032714Y-103542000D01*
X156032714Y-103256285D01*
X155975571Y-103142000D01*
X156489857Y-102570571D02*
X155689857Y-102570571D01*
X155918428Y-102570571D02*
X155804142Y-102513428D01*
X155747000Y-102456285D01*
X155689857Y-102342000D01*
X155689857Y-102227714D01*
X155689857Y-101942000D02*
X156489857Y-101656285D01*
X155689857Y-101370571D02*
X156489857Y-101656285D01*
X156775571Y-101770571D01*
X156832714Y-101827714D01*
X156889857Y-101942000D01*
X155289857Y-99999142D02*
X156261285Y-99999142D01*
X156375571Y-99942000D01*
X156432714Y-99884857D01*
X156489857Y-99770571D01*
X156489857Y-99542000D01*
X156432714Y-99427714D01*
X156375571Y-99370571D01*
X156261285Y-99313428D01*
X155289857Y-99313428D01*
X156432714Y-98799142D02*
X156489857Y-98627714D01*
X156489857Y-98342000D01*
X156432714Y-98227714D01*
X156375571Y-98170571D01*
X156261285Y-98113428D01*
X156147000Y-98113428D01*
X156032714Y-98170571D01*
X155975571Y-98227714D01*
X155918428Y-98342000D01*
X155861285Y-98570571D01*
X155804142Y-98684857D01*
X155747000Y-98742000D01*
X155632714Y-98799142D01*
X155518428Y-98799142D01*
X155404142Y-98742000D01*
X155347000Y-98684857D01*
X155289857Y-98570571D01*
X155289857Y-98284857D01*
X155347000Y-98113428D01*
X155861285Y-97199142D02*
X155918428Y-97027714D01*
X155975571Y-96970571D01*
X156089857Y-96913428D01*
X156261285Y-96913428D01*
X156375571Y-96970571D01*
X156432714Y-97027714D01*
X156489857Y-97142000D01*
X156489857Y-97599142D01*
X155289857Y-97599142D01*
X155289857Y-97199142D01*
X155347000Y-97084857D01*
X155404142Y-97027714D01*
X155518428Y-96970571D01*
X155632714Y-96970571D01*
X155747000Y-97027714D01*
X155804142Y-97084857D01*
X155861285Y-97199142D01*
X155861285Y-97599142D01*
X156489857Y-95484857D02*
X155289857Y-95484857D01*
X156489857Y-94799142D02*
X155804142Y-95313428D01*
X155289857Y-94799142D02*
X155975571Y-95484857D01*
X156432714Y-93827714D02*
X156489857Y-93942000D01*
X156489857Y-94170571D01*
X156432714Y-94284857D01*
X156318428Y-94342000D01*
X155861285Y-94342000D01*
X155747000Y-94284857D01*
X155689857Y-94170571D01*
X155689857Y-93942000D01*
X155747000Y-93827714D01*
X155861285Y-93770571D01*
X155975571Y-93770571D01*
X156089857Y-94342000D01*
X155689857Y-93370571D02*
X156489857Y-93084857D01*
X155689857Y-92799142D02*
X156489857Y-93084857D01*
X156775571Y-93199142D01*
X156832714Y-93256285D01*
X156889857Y-93370571D01*
X156489857Y-92342000D02*
X155289857Y-92342000D01*
X155747000Y-92342000D02*
X155689857Y-92227714D01*
X155689857Y-91999142D01*
X155747000Y-91884857D01*
X155804142Y-91827714D01*
X155918428Y-91770571D01*
X156261285Y-91770571D01*
X156375571Y-91827714D01*
X156432714Y-91884857D01*
X156489857Y-91999142D01*
X156489857Y-92227714D01*
X156432714Y-92342000D01*
X156489857Y-91084857D02*
X156432714Y-91199142D01*
X156375571Y-91256285D01*
X156261285Y-91313428D01*
X155918428Y-91313428D01*
X155804142Y-91256285D01*
X155747000Y-91199142D01*
X155689857Y-91084857D01*
X155689857Y-90913428D01*
X155747000Y-90799142D01*
X155804142Y-90742000D01*
X155918428Y-90684857D01*
X156261285Y-90684857D01*
X156375571Y-90742000D01*
X156432714Y-90799142D01*
X156489857Y-90913428D01*
X156489857Y-91084857D01*
X156489857Y-89656285D02*
X155861285Y-89656285D01*
X155747000Y-89713428D01*
X155689857Y-89827714D01*
X155689857Y-90056285D01*
X155747000Y-90170571D01*
X156432714Y-89656285D02*
X156489857Y-89770571D01*
X156489857Y-90056285D01*
X156432714Y-90170571D01*
X156318428Y-90227714D01*
X156204142Y-90227714D01*
X156089857Y-90170571D01*
X156032714Y-90056285D01*
X156032714Y-89770571D01*
X155975571Y-89656285D01*
X156489857Y-89084857D02*
X155689857Y-89084857D01*
X155918428Y-89084857D02*
X155804142Y-89027714D01*
X155747000Y-88970571D01*
X155689857Y-88856285D01*
X155689857Y-88742000D01*
X156489857Y-87827714D02*
X155289857Y-87827714D01*
X156432714Y-87827714D02*
X156489857Y-87942000D01*
X156489857Y-88170571D01*
X156432714Y-88284857D01*
X156375571Y-88342000D01*
X156261285Y-88399142D01*
X155918428Y-88399142D01*
X155804142Y-88342000D01*
X155747000Y-88284857D01*
X155689857Y-88170571D01*
X155689857Y-87942000D01*
X155747000Y-87827714D01*
X155689857Y-85542000D02*
X156489857Y-85256285D01*
X155689857Y-84970571D01*
X156489857Y-83884857D02*
X156489857Y-84570571D01*
X156489857Y-84227714D02*
X155289857Y-84227714D01*
X155461285Y-84342000D01*
X155575571Y-84456285D01*
X155632714Y-84570571D01*
X156489857Y-82856285D02*
X155861285Y-82856285D01*
X155747000Y-82913428D01*
X155689857Y-83027714D01*
X155689857Y-83256285D01*
X155747000Y-83370571D01*
X156432714Y-82856285D02*
X156489857Y-82970571D01*
X156489857Y-83256285D01*
X156432714Y-83370571D01*
X156318428Y-83427714D01*
X156204142Y-83427714D01*
X156089857Y-83370571D01*
X156032714Y-83256285D01*
X156032714Y-82970571D01*
X155975571Y-82856285D01*
X157339857Y-112799142D02*
X158197000Y-112799142D01*
X158368428Y-112856285D01*
X158482714Y-112970571D01*
X158539857Y-113141999D01*
X158539857Y-113256285D01*
X158539857Y-111713428D02*
X157911285Y-111713428D01*
X157797000Y-111770571D01*
X157739857Y-111884857D01*
X157739857Y-112113428D01*
X157797000Y-112227714D01*
X158482714Y-111713428D02*
X158539857Y-111827714D01*
X158539857Y-112113428D01*
X158482714Y-112227714D01*
X158368428Y-112284857D01*
X158254142Y-112284857D01*
X158139857Y-112227714D01*
X158082714Y-112113428D01*
X158082714Y-111827714D01*
X158025571Y-111713428D01*
X158482714Y-110627714D02*
X158539857Y-110741999D01*
X158539857Y-110970571D01*
X158482714Y-111084857D01*
X158425571Y-111141999D01*
X158311285Y-111199142D01*
X157968428Y-111199142D01*
X157854142Y-111141999D01*
X157797000Y-111084857D01*
X157739857Y-110970571D01*
X157739857Y-110741999D01*
X157797000Y-110627714D01*
X158539857Y-109941999D02*
X158482714Y-110056285D01*
X158425571Y-110113428D01*
X158311285Y-110170571D01*
X157968428Y-110170571D01*
X157854142Y-110113428D01*
X157797000Y-110056285D01*
X157739857Y-109941999D01*
X157739857Y-109770571D01*
X157797000Y-109656285D01*
X157854142Y-109599142D01*
X157968428Y-109541999D01*
X158311285Y-109541999D01*
X158425571Y-109599142D01*
X158482714Y-109656285D01*
X158539857Y-109770571D01*
X158539857Y-109941999D01*
X158539857Y-109027714D02*
X157339857Y-109027714D01*
X157797000Y-109027714D02*
X157739857Y-108913428D01*
X157739857Y-108684857D01*
X157797000Y-108570571D01*
X157854142Y-108513428D01*
X157968428Y-108456285D01*
X158311285Y-108456285D01*
X158425571Y-108513428D01*
X158482714Y-108570571D01*
X158539857Y-108684857D01*
X158539857Y-108913428D01*
X158482714Y-109027714D01*
X157339857Y-106684857D02*
X158197000Y-106684857D01*
X158368428Y-106741999D01*
X158482714Y-106856285D01*
X158539857Y-107027714D01*
X158539857Y-107141999D01*
X158539857Y-105599142D02*
X157911285Y-105599142D01*
X157797000Y-105656285D01*
X157739857Y-105770571D01*
X157739857Y-105999142D01*
X157797000Y-106113428D01*
X158482714Y-105599142D02*
X158539857Y-105713428D01*
X158539857Y-105999142D01*
X158482714Y-106113428D01*
X158368428Y-106170571D01*
X158254142Y-106170571D01*
X158139857Y-106113428D01*
X158082714Y-105999142D01*
X158082714Y-105713428D01*
X158025571Y-105599142D01*
X158539857Y-105027714D02*
X157739857Y-105027714D01*
X157968428Y-105027714D02*
X157854142Y-104970571D01*
X157797000Y-104913428D01*
X157739857Y-104799142D01*
X157739857Y-104684857D01*
X158539857Y-104284857D02*
X157739857Y-104284857D01*
X157339857Y-104284857D02*
X157397000Y-104341999D01*
X157454142Y-104284857D01*
X157397000Y-104227714D01*
X157339857Y-104284857D01*
X157454142Y-104284857D01*
X158482714Y-103199142D02*
X158539857Y-103313428D01*
X158539857Y-103541999D01*
X158482714Y-103656285D01*
X158425571Y-103713428D01*
X158311285Y-103770571D01*
X157968428Y-103770571D01*
X157854142Y-103713428D01*
X157797000Y-103656285D01*
X157739857Y-103541999D01*
X157739857Y-103313428D01*
X157797000Y-103199142D01*
X158539857Y-102684857D02*
X157339857Y-102684857D01*
X158082714Y-102570571D02*
X158539857Y-102227714D01*
X157739857Y-102227714D02*
X158197000Y-102684857D01*
X158082714Y-100799142D02*
X158082714Y-99884857D01*
X158539857Y-98399142D02*
X157739857Y-98399142D01*
X157854142Y-98399142D02*
X157797000Y-98341999D01*
X157739857Y-98227714D01*
X157739857Y-98056285D01*
X157797000Y-97941999D01*
X157911285Y-97884857D01*
X158539857Y-97884857D01*
X157911285Y-97884857D02*
X157797000Y-97827714D01*
X157739857Y-97713428D01*
X157739857Y-97541999D01*
X157797000Y-97427714D01*
X157911285Y-97370571D01*
X158539857Y-97370571D01*
X158482714Y-96341999D02*
X158539857Y-96456285D01*
X158539857Y-96684857D01*
X158482714Y-96799142D01*
X158368428Y-96856285D01*
X157911285Y-96856285D01*
X157797000Y-96799142D01*
X157739857Y-96684857D01*
X157739857Y-96456285D01*
X157797000Y-96341999D01*
X157911285Y-96284857D01*
X158025571Y-96284857D01*
X158139857Y-96856285D01*
X158539857Y-95770571D02*
X157739857Y-95770571D01*
X157854142Y-95770571D02*
X157797000Y-95713428D01*
X157739857Y-95599142D01*
X157739857Y-95427714D01*
X157797000Y-95313428D01*
X157911285Y-95256285D01*
X158539857Y-95256285D01*
X157911285Y-95256285D02*
X157797000Y-95199142D01*
X157739857Y-95084857D01*
X157739857Y-94913428D01*
X157797000Y-94799142D01*
X157911285Y-94742000D01*
X158539857Y-94742000D01*
X158425571Y-94170571D02*
X158482714Y-94113428D01*
X158539857Y-94170571D01*
X158482714Y-94227714D01*
X158425571Y-94170571D01*
X158539857Y-94170571D01*
X157739857Y-93599142D02*
X158539857Y-93599142D01*
X157854142Y-93599142D02*
X157797000Y-93542000D01*
X157739857Y-93427714D01*
X157739857Y-93256285D01*
X157797000Y-93142000D01*
X157911285Y-93084857D01*
X158539857Y-93084857D01*
X158539857Y-91999142D02*
X157911285Y-91999142D01*
X157797000Y-92056285D01*
X157739857Y-92170571D01*
X157739857Y-92399142D01*
X157797000Y-92513428D01*
X158482714Y-91999142D02*
X158539857Y-92113428D01*
X158539857Y-92399142D01*
X158482714Y-92513428D01*
X158368428Y-92570571D01*
X158254142Y-92570571D01*
X158139857Y-92513428D01*
X158082714Y-92399142D01*
X158082714Y-92113428D01*
X158025571Y-91999142D01*
X158539857Y-91427714D02*
X157739857Y-91427714D01*
X157854142Y-91427714D02*
X157797000Y-91370571D01*
X157739857Y-91256285D01*
X157739857Y-91084857D01*
X157797000Y-90970571D01*
X157911285Y-90913428D01*
X158539857Y-90913428D01*
X157911285Y-90913428D02*
X157797000Y-90856285D01*
X157739857Y-90741999D01*
X157739857Y-90570571D01*
X157797000Y-90456285D01*
X157911285Y-90399142D01*
X158539857Y-90399142D01*
X158482714Y-89370571D02*
X158539857Y-89484857D01*
X158539857Y-89713428D01*
X158482714Y-89827714D01*
X158368428Y-89884857D01*
X157911285Y-89884857D01*
X157797000Y-89827714D01*
X157739857Y-89713428D01*
X157739857Y-89484857D01*
X157797000Y-89370571D01*
X157911285Y-89313428D01*
X158025571Y-89313428D01*
X158139857Y-89884857D01*
X157739857Y-88970571D02*
X157739857Y-88513428D01*
X158539857Y-88799142D02*
X157511285Y-88799142D01*
X157397000Y-88741999D01*
X157339857Y-88627714D01*
X157339857Y-88513428D01*
X158539857Y-88113428D02*
X157739857Y-88113428D01*
X157339857Y-88113428D02*
X157397000Y-88170571D01*
X157454142Y-88113428D01*
X157397000Y-88056285D01*
X157339857Y-88113428D01*
X157454142Y-88113428D01*
X158539857Y-87656285D02*
X157739857Y-87027714D01*
X157739857Y-87656285D02*
X158539857Y-87027714D01*
X157968428Y-85827714D02*
X157911285Y-85884857D01*
X157854142Y-85999142D01*
X157854142Y-86113428D01*
X157911285Y-86227714D01*
X157968428Y-86284857D01*
X158082714Y-86341999D01*
X158197000Y-86341999D01*
X158311285Y-86284857D01*
X158368428Y-86227714D01*
X158425571Y-86113428D01*
X158425571Y-85999142D01*
X158368428Y-85884857D01*
X158311285Y-85827714D01*
X157854142Y-85827714D02*
X158311285Y-85827714D01*
X158368428Y-85770571D01*
X158368428Y-85713428D01*
X158311285Y-85599142D01*
X158197000Y-85541999D01*
X157911285Y-85541999D01*
X157739857Y-85656285D01*
X157625571Y-85827714D01*
X157568428Y-86056285D01*
X157625571Y-86284857D01*
X157739857Y-86456285D01*
X157911285Y-86570571D01*
X158139857Y-86627714D01*
X158368428Y-86570571D01*
X158539857Y-86456285D01*
X158654142Y-86284857D01*
X158711285Y-86056285D01*
X158654142Y-85827714D01*
X158539857Y-85656285D01*
X157739857Y-84513428D02*
X158711285Y-84513428D01*
X158825571Y-84570571D01*
X158882714Y-84627714D01*
X158939857Y-84741999D01*
X158939857Y-84913428D01*
X158882714Y-85027714D01*
X158482714Y-84513428D02*
X158539857Y-84627714D01*
X158539857Y-84856285D01*
X158482714Y-84970571D01*
X158425571Y-85027714D01*
X158311285Y-85084857D01*
X157968428Y-85084857D01*
X157854142Y-85027714D01*
X157797000Y-84970571D01*
X157739857Y-84856285D01*
X157739857Y-84627714D01*
X157797000Y-84513428D01*
X158539857Y-83941999D02*
X157739857Y-83941999D01*
X157854142Y-83941999D02*
X157797000Y-83884857D01*
X157739857Y-83770571D01*
X157739857Y-83599142D01*
X157797000Y-83484857D01*
X157911285Y-83427714D01*
X158539857Y-83427714D01*
X157911285Y-83427714D02*
X157797000Y-83370571D01*
X157739857Y-83256285D01*
X157739857Y-83084857D01*
X157797000Y-82970571D01*
X157911285Y-82913428D01*
X158539857Y-82913428D01*
X158539857Y-81827714D02*
X157911285Y-81827714D01*
X157797000Y-81884857D01*
X157739857Y-81999142D01*
X157739857Y-82227714D01*
X157797000Y-82341999D01*
X158482714Y-81827714D02*
X158539857Y-81941999D01*
X158539857Y-82227714D01*
X158482714Y-82341999D01*
X158368428Y-82399142D01*
X158254142Y-82399142D01*
X158139857Y-82341999D01*
X158082714Y-82227714D01*
X158082714Y-81941999D01*
X158025571Y-81827714D01*
X158539857Y-81256285D02*
X157739857Y-81256285D01*
X157339857Y-81256285D02*
X157397000Y-81313428D01*
X157454142Y-81256285D01*
X157397000Y-81199142D01*
X157339857Y-81256285D01*
X157454142Y-81256285D01*
X158539857Y-80513428D02*
X158482714Y-80627714D01*
X158368428Y-80684857D01*
X157339857Y-80684857D01*
X158425571Y-80056285D02*
X158482714Y-79999142D01*
X158539857Y-80056285D01*
X158482714Y-80113428D01*
X158425571Y-80056285D01*
X158539857Y-80056285D01*
X158482714Y-78970571D02*
X158539857Y-79084857D01*
X158539857Y-79313428D01*
X158482714Y-79427714D01*
X158425571Y-79484857D01*
X158311285Y-79541999D01*
X157968428Y-79541999D01*
X157854142Y-79484857D01*
X157797000Y-79427714D01*
X157739857Y-79313428D01*
X157739857Y-79084857D01*
X157797000Y-78970571D01*
X158539857Y-78284857D02*
X158482714Y-78399142D01*
X158425571Y-78456285D01*
X158311285Y-78513428D01*
X157968428Y-78513428D01*
X157854142Y-78456285D01*
X157797000Y-78399142D01*
X157739857Y-78284857D01*
X157739857Y-78113428D01*
X157797000Y-77999142D01*
X157854142Y-77941999D01*
X157968428Y-77884857D01*
X158311285Y-77884857D01*
X158425571Y-77941999D01*
X158482714Y-77999142D01*
X158539857Y-78113428D01*
X158539857Y-78284857D01*
X158539857Y-77370571D02*
X157739857Y-77370571D01*
X157854142Y-77370571D02*
X157797000Y-77313428D01*
X157739857Y-77199142D01*
X157739857Y-77027714D01*
X157797000Y-76913428D01*
X157911285Y-76856285D01*
X158539857Y-76856285D01*
X157911285Y-76856285D02*
X157797000Y-76799142D01*
X157739857Y-76684857D01*
X157739857Y-76513428D01*
X157797000Y-76399142D01*
X157911285Y-76341999D01*
X158539857Y-76341999D01*
D10*
X148540500Y-43648380D02*
X149159547Y-43648380D01*
X148826214Y-44029333D01*
X148969071Y-44029333D01*
X149064309Y-44076952D01*
X149111928Y-44124571D01*
X149159547Y-44219809D01*
X149159547Y-44457904D01*
X149111928Y-44553142D01*
X149064309Y-44600761D01*
X148969071Y-44648380D01*
X148683357Y-44648380D01*
X148588119Y-44600761D01*
X148540500Y-44553142D01*
X149588119Y-44553142D02*
X149635738Y-44600761D01*
X149588119Y-44648380D01*
X149540500Y-44600761D01*
X149588119Y-44553142D01*
X149588119Y-44648380D01*
X149969071Y-43648380D02*
X150588119Y-43648380D01*
X150254785Y-44029333D01*
X150397642Y-44029333D01*
X150492880Y-44076952D01*
X150540500Y-44124571D01*
X150588119Y-44219809D01*
X150588119Y-44457904D01*
X150540500Y-44553142D01*
X150492880Y-44600761D01*
X150397642Y-44648380D01*
X150111928Y-44648380D01*
X150016690Y-44600761D01*
X149969071Y-44553142D01*
X150921452Y-43981714D02*
X151159547Y-44648380D01*
X151397642Y-43981714D01*
X149397642Y-39838380D02*
X149730976Y-40838380D01*
X150064309Y-39838380D01*
X150397642Y-40838380D02*
X150397642Y-40171714D01*
X150397642Y-39838380D02*
X150350023Y-39886000D01*
X150397642Y-39933619D01*
X150445261Y-39886000D01*
X150397642Y-39838380D01*
X150397642Y-39933619D01*
X150873833Y-40171714D02*
X150873833Y-40838380D01*
X150873833Y-40266952D02*
X150921452Y-40219333D01*
X151016690Y-40171714D01*
X151159547Y-40171714D01*
X151254785Y-40219333D01*
X151302404Y-40314571D01*
X151302404Y-40838380D01*
X149254785Y-35822000D02*
X149159547Y-35774380D01*
X149016690Y-35774380D01*
X148873833Y-35822000D01*
X148778595Y-35917238D01*
X148730976Y-36012476D01*
X148683357Y-36202952D01*
X148683357Y-36345809D01*
X148730976Y-36536285D01*
X148778595Y-36631523D01*
X148873833Y-36726761D01*
X149016690Y-36774380D01*
X149111928Y-36774380D01*
X149254785Y-36726761D01*
X149302404Y-36679142D01*
X149302404Y-36345809D01*
X149111928Y-36345809D01*
X149730976Y-36774380D02*
X149730976Y-35774380D01*
X150302404Y-36774380D01*
X150302404Y-35774380D01*
X150778595Y-36774380D02*
X150778595Y-35774380D01*
X151016690Y-35774380D01*
X151159547Y-35822000D01*
X151254785Y-35917238D01*
X151302404Y-36012476D01*
X151350023Y-36202952D01*
X151350023Y-36345809D01*
X151302404Y-36536285D01*
X151254785Y-36631523D01*
X151159547Y-36726761D01*
X151016690Y-36774380D01*
X150778595Y-36774380D01*
X146708761Y-47166547D02*
X146756380Y-47023690D01*
X146756380Y-46785595D01*
X146708761Y-46690357D01*
X146661142Y-46642738D01*
X146565904Y-46595119D01*
X146470666Y-46595119D01*
X146375428Y-46642738D01*
X146327809Y-46690357D01*
X146280190Y-46785595D01*
X146232571Y-46976071D01*
X146184952Y-47071309D01*
X146137333Y-47118928D01*
X146042095Y-47166547D01*
X145946857Y-47166547D01*
X145851619Y-47118928D01*
X145804000Y-47071309D01*
X145756380Y-46976071D01*
X145756380Y-46737976D01*
X145804000Y-46595119D01*
X146756380Y-46166547D02*
X145756380Y-46166547D01*
X145756380Y-45928452D01*
X145804000Y-45785595D01*
X145899238Y-45690357D01*
X145994476Y-45642738D01*
X146184952Y-45595119D01*
X146327809Y-45595119D01*
X146518285Y-45642738D01*
X146613523Y-45690357D01*
X146708761Y-45785595D01*
X146756380Y-45928452D01*
X146756380Y-46166547D01*
X146470666Y-45214166D02*
X146470666Y-44737976D01*
X146756380Y-45309404D02*
X145756380Y-44976071D01*
X146756380Y-44642738D01*
X143914761Y-47118928D02*
X143962380Y-46976071D01*
X143962380Y-46737976D01*
X143914761Y-46642738D01*
X143867142Y-46595119D01*
X143771904Y-46547500D01*
X143676666Y-46547500D01*
X143581428Y-46595119D01*
X143533809Y-46642738D01*
X143486190Y-46737976D01*
X143438571Y-46928452D01*
X143390952Y-47023690D01*
X143343333Y-47071309D01*
X143248095Y-47118928D01*
X143152857Y-47118928D01*
X143057619Y-47071309D01*
X143010000Y-47023690D01*
X142962380Y-46928452D01*
X142962380Y-46690357D01*
X143010000Y-46547500D01*
X143867142Y-45547500D02*
X143914761Y-45595119D01*
X143962380Y-45737976D01*
X143962380Y-45833214D01*
X143914761Y-45976071D01*
X143819523Y-46071309D01*
X143724285Y-46118928D01*
X143533809Y-46166547D01*
X143390952Y-46166547D01*
X143200476Y-46118928D01*
X143105238Y-46071309D01*
X143010000Y-45976071D01*
X142962380Y-45833214D01*
X142962380Y-45737976D01*
X143010000Y-45595119D01*
X143057619Y-45547500D01*
X143962380Y-44642738D02*
X143962380Y-45118928D01*
X142962380Y-45118928D01*
X140676380Y-47547500D02*
X140676380Y-46928452D01*
X141057333Y-47261785D01*
X141057333Y-47118928D01*
X141104952Y-47023690D01*
X141152571Y-46976071D01*
X141247809Y-46928452D01*
X141485904Y-46928452D01*
X141581142Y-46976071D01*
X141628761Y-47023690D01*
X141676380Y-47118928D01*
X141676380Y-47404642D01*
X141628761Y-47499880D01*
X141581142Y-47547500D01*
X141581142Y-46499880D02*
X141628761Y-46452261D01*
X141676380Y-46499880D01*
X141628761Y-46547500D01*
X141581142Y-46499880D01*
X141676380Y-46499880D01*
X140676380Y-46118928D02*
X140676380Y-45499880D01*
X141057333Y-45833214D01*
X141057333Y-45690357D01*
X141104952Y-45595119D01*
X141152571Y-45547500D01*
X141247809Y-45499880D01*
X141485904Y-45499880D01*
X141581142Y-45547500D01*
X141628761Y-45595119D01*
X141676380Y-45690357D01*
X141676380Y-45976071D01*
X141628761Y-46071309D01*
X141581142Y-46118928D01*
X141009714Y-45166547D02*
X141676380Y-44928452D01*
X141009714Y-44690357D01*
X137930000Y-46833214D02*
X137882380Y-46928452D01*
X137882380Y-47071309D01*
X137930000Y-47214166D01*
X138025238Y-47309404D01*
X138120476Y-47357023D01*
X138310952Y-47404642D01*
X138453809Y-47404642D01*
X138644285Y-47357023D01*
X138739523Y-47309404D01*
X138834761Y-47214166D01*
X138882380Y-47071309D01*
X138882380Y-46976071D01*
X138834761Y-46833214D01*
X138787142Y-46785595D01*
X138453809Y-46785595D01*
X138453809Y-46976071D01*
X138882380Y-46357023D02*
X137882380Y-46357023D01*
X138882380Y-45785595D01*
X137882380Y-45785595D01*
X138882380Y-45309404D02*
X137882380Y-45309404D01*
X137882380Y-45071309D01*
X137930000Y-44928452D01*
X138025238Y-44833214D01*
X138120476Y-44785595D01*
X138310952Y-44737976D01*
X138453809Y-44737976D01*
X138644285Y-44785595D01*
X138739523Y-44833214D01*
X138834761Y-44928452D01*
X138882380Y-45071309D01*
X138882380Y-45309404D01*
X139604714Y-71318380D02*
X139033285Y-71318380D01*
X139319000Y-71318380D02*
X139319000Y-70318380D01*
X139223761Y-70461238D01*
X139128523Y-70556476D01*
X139033285Y-70604095D01*
D12*
%TO.C,D12*%
X132150000Y-117900000D02*
X133850000Y-117900000D01*
X133850000Y-117900000D02*
X133850000Y-114750000D01*
X132150000Y-117900000D02*
X132150000Y-114750000D01*
%TO.C,D11*%
X133850000Y-35100000D02*
X132150000Y-35100000D01*
X132150000Y-35100000D02*
X132150000Y-38250000D01*
X133850000Y-35100000D02*
X133850000Y-38250000D01*
%TO.C,D10*%
X133850000Y-90100000D02*
X132150000Y-90100000D01*
X132150000Y-90100000D02*
X132150000Y-93250000D01*
X133850000Y-90100000D02*
X133850000Y-93250000D01*
%TO.C,D9*%
X130350000Y-68100000D02*
X128650000Y-68100000D01*
X128650000Y-68100000D02*
X128650000Y-71250000D01*
X130350000Y-68100000D02*
X130350000Y-71250000D01*
%TO.C,D8*%
X112850000Y-117100000D02*
X111150000Y-117100000D01*
X111150000Y-117100000D02*
X111150000Y-120250000D01*
X112850000Y-117100000D02*
X112850000Y-120250000D01*
%TO.C,D7*%
X111150000Y-112900000D02*
X112850000Y-112900000D01*
X112850000Y-112900000D02*
X112850000Y-109750000D01*
X111150000Y-112900000D02*
X111150000Y-109750000D01*
%TO.C,D6*%
X112850000Y-35100000D02*
X111150000Y-35100000D01*
X111150000Y-35100000D02*
X111150000Y-38250000D01*
X112850000Y-35100000D02*
X112850000Y-38250000D01*
%TO.C,D5*%
X111150000Y-30900000D02*
X112850000Y-30900000D01*
X112850000Y-30900000D02*
X112850000Y-27750000D01*
X111150000Y-30900000D02*
X111150000Y-27750000D01*
%TO.C,D4*%
X112850000Y-90100000D02*
X111150000Y-90100000D01*
X111150000Y-90100000D02*
X111150000Y-93250000D01*
X112850000Y-90100000D02*
X112850000Y-93250000D01*
%TO.C,D3*%
X111150000Y-84900000D02*
X112850000Y-84900000D01*
X112850000Y-84900000D02*
X112850000Y-81750000D01*
X111150000Y-84900000D02*
X111150000Y-81750000D01*
%TO.C,D2*%
X112850000Y-62100000D02*
X111150000Y-62100000D01*
X111150000Y-62100000D02*
X111150000Y-65250000D01*
X112850000Y-62100000D02*
X112850000Y-65250000D01*
%TO.C,D1*%
X111150000Y-57900000D02*
X112850000Y-57900000D01*
X112850000Y-57900000D02*
X112850000Y-54750000D01*
X111150000Y-57900000D02*
X111150000Y-54750000D01*
%TO.C,C1*%
X140203422Y-68274000D02*
X140720578Y-68274000D01*
X140203422Y-66854000D02*
X140720578Y-66854000D01*
%TO.C,J3*%
X160180000Y-33310000D02*
X160180000Y-35310000D01*
X158930000Y-33310000D02*
X160180000Y-33310000D01*
X153180000Y-45530000D02*
X153180000Y-44780000D01*
X157480000Y-45530000D02*
X153180000Y-45530000D01*
X157480000Y-44780000D02*
X157480000Y-45530000D01*
X157830000Y-44780000D02*
X157480000Y-44780000D01*
X157830000Y-45280000D02*
X157830000Y-44780000D01*
X158830000Y-45530000D02*
X157830000Y-45280000D01*
X158830000Y-42530000D02*
X158830000Y-45530000D01*
X157830000Y-42780000D02*
X158830000Y-42530000D01*
X157830000Y-43280000D02*
X157830000Y-42780000D01*
X157480000Y-43280000D02*
X157830000Y-43280000D01*
X157480000Y-42530000D02*
X157480000Y-43280000D01*
X153180000Y-42530000D02*
X157480000Y-42530000D01*
X153180000Y-43280000D02*
X153180000Y-42530000D01*
X153180000Y-41720000D02*
X153180000Y-40970000D01*
X157480000Y-41720000D02*
X153180000Y-41720000D01*
X157480000Y-40970000D02*
X157480000Y-41720000D01*
X157830000Y-40970000D02*
X157480000Y-40970000D01*
X157830000Y-41470000D02*
X157830000Y-40970000D01*
X158830000Y-41720000D02*
X157830000Y-41470000D01*
X158830000Y-38720000D02*
X158830000Y-41720000D01*
X157830000Y-38970000D02*
X158830000Y-38720000D01*
X157830000Y-39470000D02*
X157830000Y-38970000D01*
X157480000Y-39470000D02*
X157830000Y-39470000D01*
X157480000Y-38720000D02*
X157480000Y-39470000D01*
X153180000Y-38720000D02*
X157480000Y-38720000D01*
X153180000Y-39470000D02*
X153180000Y-38720000D01*
X153180000Y-37910000D02*
X153180000Y-37160000D01*
X157480000Y-37910000D02*
X153180000Y-37910000D01*
X157480000Y-37160000D02*
X157480000Y-37910000D01*
X157830000Y-37160000D02*
X157480000Y-37160000D01*
X157830000Y-37660000D02*
X157830000Y-37160000D01*
X158830000Y-37910000D02*
X157830000Y-37660000D01*
X158830000Y-34910000D02*
X158830000Y-37910000D01*
X157830000Y-35160000D02*
X158830000Y-34910000D01*
X157830000Y-35660000D02*
X157830000Y-35160000D01*
X157480000Y-35660000D02*
X157830000Y-35660000D01*
X157480000Y-34910000D02*
X157480000Y-35660000D01*
X153180000Y-34910000D02*
X157480000Y-34910000D01*
X153180000Y-35660000D02*
X153180000Y-34910000D01*
X159790000Y-46740000D02*
X159790000Y-33700000D01*
X152320000Y-46740000D02*
X159790000Y-46740000D01*
X152320000Y-33700000D02*
X152320000Y-46740000D01*
X159790000Y-33700000D02*
X152320000Y-33700000D01*
X153180155Y-44779647D02*
G75*
G03*
X153180000Y-43280000I-1700155J749647D01*
G01*
X153180155Y-40969647D02*
G75*
G03*
X153180000Y-39470000I-1700155J749647D01*
G01*
X153180155Y-37159647D02*
G75*
G03*
X153180000Y-35660000I-1700155J749647D01*
G01*
%TO.C,SW4*%
X125500000Y-32500000D02*
G75*
G03*
X125500000Y-32500000I-3000000J0D01*
G01*
X124500000Y-26600000D02*
X128600000Y-26600000D01*
X128600000Y-38400000D02*
X124500000Y-38400000D01*
X120500000Y-38400000D02*
X116400000Y-38400000D01*
X120500000Y-26600000D02*
X116400000Y-26600000D01*
X116400000Y-26600000D02*
X116400000Y-38400000D01*
X115000000Y-28700000D02*
X114700000Y-28400000D01*
X114700000Y-28400000D02*
X115300000Y-28400000D01*
X115300000Y-28400000D02*
X115000000Y-28700000D01*
X128600000Y-26600000D02*
X128600000Y-29000000D01*
X128600000Y-31200000D02*
X128600000Y-33800000D01*
X128600000Y-36000000D02*
X128600000Y-38400000D01*
X122500000Y-32000000D02*
X122500000Y-33000000D01*
X122000000Y-32500000D02*
X123000000Y-32500000D01*
%TO.C,SW3*%
X125500000Y-87500000D02*
G75*
G03*
X125500000Y-87500000I-3000000J0D01*
G01*
X124500000Y-81600000D02*
X128600000Y-81600000D01*
X128600000Y-93400000D02*
X124500000Y-93400000D01*
X120500000Y-93400000D02*
X116400000Y-93400000D01*
X120500000Y-81600000D02*
X116400000Y-81600000D01*
X116400000Y-81600000D02*
X116400000Y-93400000D01*
X115000000Y-83700000D02*
X114700000Y-83400000D01*
X114700000Y-83400000D02*
X115300000Y-83400000D01*
X115300000Y-83400000D02*
X115000000Y-83700000D01*
X128600000Y-81600000D02*
X128600000Y-84000000D01*
X128600000Y-86200000D02*
X128600000Y-88800000D01*
X128600000Y-91000000D02*
X128600000Y-93400000D01*
X122500000Y-87000000D02*
X122500000Y-88000000D01*
X122000000Y-87500000D02*
X123000000Y-87500000D01*
%TO.C,SW2*%
X125500000Y-60000000D02*
G75*
G03*
X125500000Y-60000000I-3000000J0D01*
G01*
X124500000Y-54100000D02*
X128600000Y-54100000D01*
X128600000Y-65900000D02*
X124500000Y-65900000D01*
X120500000Y-65900000D02*
X116400000Y-65900000D01*
X120500000Y-54100000D02*
X116400000Y-54100000D01*
X116400000Y-54100000D02*
X116400000Y-65900000D01*
X115000000Y-56200000D02*
X114700000Y-55900000D01*
X114700000Y-55900000D02*
X115300000Y-55900000D01*
X115300000Y-55900000D02*
X115000000Y-56200000D01*
X128600000Y-54100000D02*
X128600000Y-56500000D01*
X128600000Y-58700000D02*
X128600000Y-61300000D01*
X128600000Y-63500000D02*
X128600000Y-65900000D01*
X122500000Y-59500000D02*
X122500000Y-60500000D01*
X122000000Y-60000000D02*
X123000000Y-60000000D01*
%TO.C,SW1*%
X125500000Y-115000000D02*
G75*
G03*
X125500000Y-115000000I-3000000J0D01*
G01*
X124500000Y-109100000D02*
X128600000Y-109100000D01*
X128600000Y-120900000D02*
X124500000Y-120900000D01*
X120500000Y-120900000D02*
X116400000Y-120900000D01*
X120500000Y-109100000D02*
X116400000Y-109100000D01*
X116400000Y-109100000D02*
X116400000Y-120900000D01*
X115000000Y-111200000D02*
X114700000Y-110900000D01*
X114700000Y-110900000D02*
X115300000Y-110900000D01*
X115300000Y-110900000D02*
X115000000Y-111200000D01*
X128600000Y-109100000D02*
X128600000Y-111500000D01*
X128600000Y-113700000D02*
X128600000Y-116300000D01*
X128600000Y-118500000D02*
X128600000Y-120900000D01*
X122500000Y-114500000D02*
X122500000Y-115500000D01*
X122000000Y-115000000D02*
X123000000Y-115000000D01*
%TO.C,R1*%
X156678578Y-72650000D02*
X156161422Y-72650000D01*
X156678578Y-74070000D02*
X156161422Y-74070000D01*
D13*
%TO.C,P7*%
X137670000Y-50830000D02*
X137670000Y-53930000D01*
X151640000Y-57353100D02*
X151640000Y-64287000D01*
X152656000Y-49301000D02*
X152656000Y-51832100D01*
X152472000Y-52832000D02*
G75*
G03*
X151640000Y-57353100I11867982J-4521122D01*
G01*
X152656000Y-51832100D02*
G75*
G02*
X152472000Y-52832000I-2808602J-45D01*
G01*
D12*
%TO.C,J2*%
X137170000Y-43830000D02*
X137170000Y-42500000D01*
X138500000Y-43830000D02*
X137170000Y-43830000D01*
X139770000Y-43830000D02*
X139770000Y-41170000D01*
X139770000Y-41170000D02*
X147450000Y-41170000D01*
X139770000Y-43830000D02*
X147450000Y-43830000D01*
X147450000Y-43830000D02*
X147450000Y-41170000D01*
%TO.C,J1*%
X150050000Y-24115000D02*
X150050000Y-26655000D01*
X150050000Y-24115000D02*
X147510000Y-24115000D01*
X149800000Y-24365000D02*
X149800000Y-33715000D01*
X134020000Y-24365000D02*
X149800000Y-24365000D01*
X134020000Y-33715000D02*
X134020000Y-24365000D01*
X149800000Y-33715000D02*
X134020000Y-33715000D01*
D10*
%TO.C,P1*%
X138303000Y-72136000D02*
X138303000Y-69596000D01*
X138303000Y-69596000D02*
X135763000Y-69596000D01*
X135763000Y-69596000D02*
X135763000Y-72136000D01*
X135763000Y-72136000D02*
X135763000Y-112776000D01*
X135763000Y-112776000D02*
X138303000Y-112776000D01*
X138303000Y-112776000D02*
X138303000Y-72136000D01*
X135763000Y-72136000D02*
X138303000Y-72136000D01*
%TO.C,P2*%
X153543000Y-72136000D02*
X153543000Y-69596000D01*
X153543000Y-69596000D02*
X151003000Y-69596000D01*
X151003000Y-69596000D02*
X151003000Y-72136000D01*
X151003000Y-72136000D02*
X151003000Y-112776000D01*
X151003000Y-112776000D02*
X153543000Y-112776000D01*
X153543000Y-112776000D02*
X153543000Y-72136000D01*
X151003000Y-72136000D02*
X153543000Y-72136000D01*
%TO.C,C1*%
X142851333Y-67349714D02*
X142851333Y-68016380D01*
X142613238Y-66968761D02*
X142375142Y-67683047D01*
X142994190Y-67683047D01*
X143279904Y-67016380D02*
X143946571Y-67016380D01*
X143518000Y-68016380D01*
X144756095Y-67349714D02*
X144756095Y-68016380D01*
X144327523Y-67349714D02*
X144327523Y-67873523D01*
X144375142Y-67968761D01*
X144470380Y-68016380D01*
X144613238Y-68016380D01*
X144708476Y-67968761D01*
X144756095Y-67921142D01*
X145565619Y-67492571D02*
X145232285Y-67492571D01*
X145232285Y-68016380D02*
X145232285Y-67016380D01*
X145708476Y-67016380D01*
%TO.C,R1*%
X155824761Y-72162380D02*
X155253333Y-72162380D01*
X155539047Y-72162380D02*
X155539047Y-71162380D01*
X155443809Y-71305238D01*
X155348571Y-71400476D01*
X155253333Y-71448095D01*
X156443809Y-71162380D02*
X156539047Y-71162380D01*
X156634285Y-71210000D01*
X156681904Y-71257619D01*
X156729523Y-71352857D01*
X156777142Y-71543333D01*
X156777142Y-71781428D01*
X156729523Y-71971904D01*
X156681904Y-72067142D01*
X156634285Y-72114761D01*
X156539047Y-72162380D01*
X156443809Y-72162380D01*
X156348571Y-72114761D01*
X156300952Y-72067142D01*
X156253333Y-71971904D01*
X156205714Y-71781428D01*
X156205714Y-71543333D01*
X156253333Y-71352857D01*
X156300952Y-71257619D01*
X156348571Y-71210000D01*
X156443809Y-71162380D01*
X157205714Y-72162380D02*
X157205714Y-71162380D01*
X157300952Y-71781428D02*
X157586666Y-72162380D01*
X157586666Y-71495714D02*
X157205714Y-71876666D01*
%TD*%
%LPC*%
D14*
%TO.C,D12*%
X133000000Y-114750000D03*
X133000000Y-117250000D03*
%TD*%
%TO.C,D11*%
X133000000Y-38250000D03*
X133000000Y-35750000D03*
%TD*%
%TO.C,D10*%
X133000000Y-93250000D03*
X133000000Y-90750000D03*
%TD*%
%TO.C,D9*%
X129500000Y-71250000D03*
X129500000Y-68750000D03*
%TD*%
%TO.C,D8*%
X112000000Y-120250000D03*
X112000000Y-117750000D03*
%TD*%
%TO.C,D7*%
X112000000Y-109750000D03*
X112000000Y-112250000D03*
%TD*%
%TO.C,D6*%
X112000000Y-38250000D03*
X112000000Y-35750000D03*
%TD*%
%TO.C,D5*%
X112000000Y-27750000D03*
X112000000Y-30250000D03*
%TD*%
%TO.C,D4*%
X112000000Y-93250000D03*
X112000000Y-90750000D03*
%TD*%
%TO.C,D3*%
X112000000Y-81750000D03*
X112000000Y-84250000D03*
%TD*%
%TO.C,D2*%
X112000000Y-65250000D03*
X112000000Y-62750000D03*
%TD*%
%TO.C,D1*%
X112000000Y-54750000D03*
X112000000Y-57250000D03*
%TD*%
%TO.C,C1*%
G36*
G01*
X140912000Y-68020250D02*
X140912000Y-67107750D01*
G75*
G02*
X141155750Y-66864000I243750J0D01*
G01*
X141643250Y-66864000D01*
G75*
G02*
X141887000Y-67107750I0J-243750D01*
G01*
X141887000Y-68020250D01*
G75*
G02*
X141643250Y-68264000I-243750J0D01*
G01*
X141155750Y-68264000D01*
G75*
G02*
X140912000Y-68020250I0J243750D01*
G01*
G37*
G36*
G01*
X139037000Y-68020250D02*
X139037000Y-67107750D01*
G75*
G02*
X139280750Y-66864000I243750J0D01*
G01*
X139768250Y-66864000D01*
G75*
G02*
X140012000Y-67107750I0J-243750D01*
G01*
X140012000Y-68020250D01*
G75*
G02*
X139768250Y-68264000I-243750J0D01*
G01*
X139280750Y-68264000D01*
G75*
G02*
X139037000Y-68020250I0J243750D01*
G01*
G37*
%TD*%
D15*
%TO.C,J3*%
X155430000Y-44030000D03*
X155430000Y-40220000D03*
G36*
G01*
X153880000Y-35510000D02*
X156980000Y-35510000D01*
G75*
G02*
X157230000Y-35760000I0J-250000D01*
G01*
X157230000Y-37060000D01*
G75*
G02*
X156980000Y-37310000I-250000J0D01*
G01*
X153880000Y-37310000D01*
G75*
G02*
X153630000Y-37060000I0J250000D01*
G01*
X153630000Y-35760000D01*
G75*
G02*
X153880000Y-35510000I250000J0D01*
G01*
G37*
%TD*%
D16*
%TO.C,SW4*%
X115000000Y-30000000D03*
D17*
X115000000Y-32500000D03*
X115000000Y-35000000D03*
D18*
X122500000Y-26900000D03*
X122500000Y-38100000D03*
D17*
X129500000Y-30000000D03*
X129500000Y-35000000D03*
%TD*%
D16*
%TO.C,SW3*%
X115000000Y-85000000D03*
D17*
X115000000Y-87500000D03*
X115000000Y-90000000D03*
D18*
X122500000Y-81900000D03*
X122500000Y-93100000D03*
D17*
X129500000Y-85000000D03*
X129500000Y-90000000D03*
%TD*%
D16*
%TO.C,SW2*%
X115000000Y-57500000D03*
D17*
X115000000Y-60000000D03*
X115000000Y-62500000D03*
D18*
X122500000Y-54400000D03*
X122500000Y-65600000D03*
D17*
X129500000Y-57500000D03*
X129500000Y-62500000D03*
%TD*%
D19*
%TO.C,H2*%
X157620419Y-117099581D03*
X155340000Y-116155000D03*
X153059581Y-117099581D03*
X152115000Y-119380000D03*
X153059581Y-121660419D03*
X155340000Y-122605000D03*
X157620419Y-121660419D03*
X158565000Y-119380000D03*
D20*
X155340000Y-119380000D03*
%TD*%
D19*
%TO.C,H1*%
X157620419Y-26339581D03*
X155340000Y-25395000D03*
X153059581Y-26339581D03*
X152115000Y-28620000D03*
X153059581Y-30900419D03*
X155340000Y-31845000D03*
X157620419Y-30900419D03*
X158565000Y-28620000D03*
D20*
X155340000Y-28620000D03*
%TD*%
D16*
%TO.C,SW1*%
X115000000Y-112500000D03*
D17*
X115000000Y-115000000D03*
X115000000Y-117500000D03*
D18*
X122500000Y-109400000D03*
X122500000Y-120600000D03*
D17*
X129500000Y-112500000D03*
X129500000Y-117500000D03*
%TD*%
%TO.C,R1*%
G36*
G01*
X155970000Y-72903750D02*
X155970000Y-73816250D01*
G75*
G02*
X155726250Y-74060000I-243750J0D01*
G01*
X155238750Y-74060000D01*
G75*
G02*
X154995000Y-73816250I0J243750D01*
G01*
X154995000Y-72903750D01*
G75*
G02*
X155238750Y-72660000I243750J0D01*
G01*
X155726250Y-72660000D01*
G75*
G02*
X155970000Y-72903750I0J-243750D01*
G01*
G37*
G36*
G01*
X157845000Y-72903750D02*
X157845000Y-73816250D01*
G75*
G02*
X157601250Y-74060000I-243750J0D01*
G01*
X157113750Y-74060000D01*
G75*
G02*
X156870000Y-73816250I0J243750D01*
G01*
X156870000Y-72903750D01*
G75*
G02*
X157113750Y-72660000I243750J0D01*
G01*
X157601250Y-72660000D01*
G75*
G02*
X157845000Y-72903750I0J-243750D01*
G01*
G37*
%TD*%
D19*
%TO.C,P7*%
X148170000Y-53680000D03*
X148170000Y-61680000D03*
D21*
X147770000Y-48880000D03*
D22*
X138170000Y-49780000D03*
D21*
X147770000Y-64580000D03*
D23*
X138270000Y-64580000D03*
D24*
X137670000Y-63280000D03*
X137670000Y-62180000D03*
X137670000Y-61080000D03*
X137670000Y-59980000D03*
X137670000Y-58880000D03*
X137670000Y-57780000D03*
X137670000Y-56680000D03*
X137670000Y-55580000D03*
X137670000Y-54480000D03*
%TD*%
D25*
%TO.C,J2*%
X146120000Y-42500000D03*
X143580000Y-42500000D03*
X141040000Y-42500000D03*
D26*
X138500000Y-42500000D03*
%TD*%
D27*
%TO.C,J1*%
X139370000Y-30310000D03*
X139370000Y-27770000D03*
X141910000Y-30310000D03*
X141910000Y-27770000D03*
X144450000Y-30310000D03*
D28*
X144450000Y-27770000D03*
%TD*%
D29*
%TO.C,P1*%
X137033000Y-70866000D03*
X137033000Y-73406000D03*
X137033000Y-75946000D03*
X137033000Y-78486000D03*
X137033000Y-81026000D03*
X137033000Y-83566000D03*
X137033000Y-86106000D03*
X137033000Y-88646000D03*
X137033000Y-91186000D03*
X137033000Y-93726000D03*
X137033000Y-96266000D03*
X137033000Y-98806000D03*
X137033000Y-101346000D03*
X137033000Y-103886000D03*
X137033000Y-106426000D03*
X137033000Y-108966000D03*
X137033000Y-111506000D03*
%TD*%
%TO.C,P2*%
X152273000Y-70866000D03*
X152273000Y-73406000D03*
X152273000Y-75946000D03*
X152273000Y-78486000D03*
X152273000Y-81026000D03*
X152273000Y-83566000D03*
X152273000Y-86106000D03*
X152273000Y-88646000D03*
X152273000Y-91186000D03*
X152273000Y-93726000D03*
X152273000Y-96266000D03*
X152273000Y-98806000D03*
X152273000Y-101346000D03*
X152273000Y-103886000D03*
X152273000Y-106426000D03*
X152273000Y-108966000D03*
X152273000Y-111506000D03*
%TD*%
D30*
%TO.C,P3*%
X137033000Y-68326000D03*
%TD*%
%TO.C,P4*%
X137033000Y-114046000D03*
%TD*%
%TO.C,P5*%
X152273000Y-114046000D03*
%TD*%
%TO.C,P6*%
X152273000Y-68326000D03*
%TD*%
M02*
