%TF.GenerationSoftware,KiCad,Pcbnew,(5.1.6)-1*%
%TF.CreationDate,2020-07-27T07:25:15+08:00*%
%TF.ProjectId,rot-kb,726f742d-6b62-42e6-9b69-6361645f7063,rev?*%
%TF.SameCoordinates,Original*%
%TF.FileFunction,Other,Fab,Top*%
%FSLAX46Y46*%
G04 Gerber Fmt 4.6, Leading zero omitted, Abs format (unit mm)*
G04 Created by KiCad (PCBNEW (5.1.6)-1) date 2020-07-27 07:25:15*
%MOMM*%
%LPD*%
G01*
G04 APERTURE LIST*
%ADD10C,0.100000*%
%ADD11C,0.120000*%
%ADD12C,0.127000*%
%ADD13C,0.150000*%
%ADD14C,0.080000*%
%ADD15C,0.015000*%
G04 APERTURE END LIST*
D10*
%TO.C,SW5*%
X159560000Y-35220000D02*
X159560000Y-44000000D01*
X159560000Y-44000000D02*
X149760000Y-44000000D01*
X149760000Y-44000000D02*
X149760000Y-34220000D01*
X149760000Y-34220000D02*
X158560000Y-34220000D01*
X158560000Y-34220000D02*
X159560000Y-35220000D01*
X157835000Y-37080000D02*
X156565000Y-37080000D01*
X156565000Y-37080000D02*
X156565000Y-41140000D01*
X156565000Y-41140000D02*
X157835000Y-41140000D01*
X157835000Y-41140000D02*
X157835000Y-37080000D01*
X157735000Y-37080000D02*
X157735000Y-38433333D01*
X157635000Y-37080000D02*
X157635000Y-38433333D01*
X157535000Y-37080000D02*
X157535000Y-38433333D01*
X157435000Y-37080000D02*
X157435000Y-38433333D01*
X157335000Y-37080000D02*
X157335000Y-38433333D01*
X157235000Y-37080000D02*
X157235000Y-38433333D01*
X157135000Y-37080000D02*
X157135000Y-38433333D01*
X157035000Y-37080000D02*
X157035000Y-38433333D01*
X156935000Y-37080000D02*
X156935000Y-38433333D01*
X156835000Y-37080000D02*
X156835000Y-38433333D01*
X156735000Y-37080000D02*
X156735000Y-38433333D01*
X156635000Y-37080000D02*
X156635000Y-38433333D01*
X157835000Y-38433333D02*
X156565000Y-38433333D01*
X155295000Y-37080000D02*
X154025000Y-37080000D01*
X154025000Y-37080000D02*
X154025000Y-41140000D01*
X154025000Y-41140000D02*
X155295000Y-41140000D01*
X155295000Y-41140000D02*
X155295000Y-37080000D01*
X155195000Y-37080000D02*
X155195000Y-38433333D01*
X155095000Y-37080000D02*
X155095000Y-38433333D01*
X154995000Y-37080000D02*
X154995000Y-38433333D01*
X154895000Y-37080000D02*
X154895000Y-38433333D01*
X154795000Y-37080000D02*
X154795000Y-38433333D01*
X154695000Y-37080000D02*
X154695000Y-38433333D01*
X154595000Y-37080000D02*
X154595000Y-38433333D01*
X154495000Y-37080000D02*
X154495000Y-38433333D01*
X154395000Y-37080000D02*
X154395000Y-38433333D01*
X154295000Y-37080000D02*
X154295000Y-38433333D01*
X154195000Y-37080000D02*
X154195000Y-38433333D01*
X154095000Y-37080000D02*
X154095000Y-38433333D01*
X155295000Y-38433333D02*
X154025000Y-38433333D01*
X152755000Y-37080000D02*
X151485000Y-37080000D01*
X151485000Y-37080000D02*
X151485000Y-41140000D01*
X151485000Y-41140000D02*
X152755000Y-41140000D01*
X152755000Y-41140000D02*
X152755000Y-37080000D01*
X152655000Y-37080000D02*
X152655000Y-38433333D01*
X152555000Y-37080000D02*
X152555000Y-38433333D01*
X152455000Y-37080000D02*
X152455000Y-38433333D01*
X152355000Y-37080000D02*
X152355000Y-38433333D01*
X152255000Y-37080000D02*
X152255000Y-38433333D01*
X152155000Y-37080000D02*
X152155000Y-38433333D01*
X152055000Y-37080000D02*
X152055000Y-38433333D01*
X151955000Y-37080000D02*
X151955000Y-38433333D01*
X151855000Y-37080000D02*
X151855000Y-38433333D01*
X151755000Y-37080000D02*
X151755000Y-38433333D01*
X151655000Y-37080000D02*
X151655000Y-38433333D01*
X151555000Y-37080000D02*
X151555000Y-38433333D01*
X152755000Y-38433333D02*
X151485000Y-38433333D01*
%TO.C,R4*%
X147300000Y-99400000D02*
X147300000Y-98200000D01*
X147300000Y-98200000D02*
X149300000Y-98200000D01*
X149300000Y-98200000D02*
X149300000Y-99400000D01*
X149300000Y-99400000D02*
X147300000Y-99400000D01*
%TO.C,R3*%
X147300000Y-90600000D02*
X149300000Y-90600000D01*
X147300000Y-91800000D02*
X147300000Y-90600000D01*
X149300000Y-91800000D02*
X147300000Y-91800000D01*
X149300000Y-90600000D02*
X149300000Y-91800000D01*
%TO.C,R2*%
X147300000Y-73700000D02*
X147300000Y-72500000D01*
X147300000Y-72500000D02*
X149300000Y-72500000D01*
X149300000Y-72500000D02*
X149300000Y-73700000D01*
X149300000Y-73700000D02*
X147300000Y-73700000D01*
%TO.C,D12*%
X132300000Y-116900000D02*
X132300000Y-115100000D01*
X132300000Y-115100000D02*
X133700000Y-115100000D01*
X133700000Y-115100000D02*
X133700000Y-116900000D01*
X133700000Y-116900000D02*
X132300000Y-116900000D01*
X132650000Y-116300000D02*
X133350000Y-116300000D01*
X133000000Y-116300000D02*
X133000000Y-116500000D01*
X133000000Y-116300000D02*
X132650000Y-115800000D01*
X132650000Y-115800000D02*
X133350000Y-115800000D01*
X133350000Y-115800000D02*
X133000000Y-116300000D01*
X133000000Y-115800000D02*
X133000000Y-115550000D01*
%TO.C,D11*%
X133700000Y-36100000D02*
X133700000Y-37900000D01*
X133700000Y-37900000D02*
X132300000Y-37900000D01*
X132300000Y-37900000D02*
X132300000Y-36100000D01*
X132300000Y-36100000D02*
X133700000Y-36100000D01*
X133350000Y-36700000D02*
X132650000Y-36700000D01*
X133000000Y-36700000D02*
X133000000Y-36500000D01*
X133000000Y-36700000D02*
X133350000Y-37200000D01*
X133350000Y-37200000D02*
X132650000Y-37200000D01*
X132650000Y-37200000D02*
X133000000Y-36700000D01*
X133000000Y-37200000D02*
X133000000Y-37450000D01*
%TO.C,D10*%
X133700000Y-91100000D02*
X133700000Y-92900000D01*
X133700000Y-92900000D02*
X132300000Y-92900000D01*
X132300000Y-92900000D02*
X132300000Y-91100000D01*
X132300000Y-91100000D02*
X133700000Y-91100000D01*
X133350000Y-91700000D02*
X132650000Y-91700000D01*
X133000000Y-91700000D02*
X133000000Y-91500000D01*
X133000000Y-91700000D02*
X133350000Y-92200000D01*
X133350000Y-92200000D02*
X132650000Y-92200000D01*
X132650000Y-92200000D02*
X133000000Y-91700000D01*
X133000000Y-92200000D02*
X133000000Y-92450000D01*
%TO.C,D9*%
X130200000Y-69100000D02*
X130200000Y-70900000D01*
X130200000Y-70900000D02*
X128800000Y-70900000D01*
X128800000Y-70900000D02*
X128800000Y-69100000D01*
X128800000Y-69100000D02*
X130200000Y-69100000D01*
X129850000Y-69700000D02*
X129150000Y-69700000D01*
X129500000Y-69700000D02*
X129500000Y-69500000D01*
X129500000Y-69700000D02*
X129850000Y-70200000D01*
X129850000Y-70200000D02*
X129150000Y-70200000D01*
X129150000Y-70200000D02*
X129500000Y-69700000D01*
X129500000Y-70200000D02*
X129500000Y-70450000D01*
%TO.C,D8*%
X112700000Y-118100000D02*
X112700000Y-119900000D01*
X112700000Y-119900000D02*
X111300000Y-119900000D01*
X111300000Y-119900000D02*
X111300000Y-118100000D01*
X111300000Y-118100000D02*
X112700000Y-118100000D01*
X112350000Y-118700000D02*
X111650000Y-118700000D01*
X112000000Y-118700000D02*
X112000000Y-118500000D01*
X112000000Y-118700000D02*
X112350000Y-119200000D01*
X112350000Y-119200000D02*
X111650000Y-119200000D01*
X111650000Y-119200000D02*
X112000000Y-118700000D01*
X112000000Y-119200000D02*
X112000000Y-119450000D01*
%TO.C,D7*%
X111300000Y-111900000D02*
X111300000Y-110100000D01*
X111300000Y-110100000D02*
X112700000Y-110100000D01*
X112700000Y-110100000D02*
X112700000Y-111900000D01*
X112700000Y-111900000D02*
X111300000Y-111900000D01*
X111650000Y-111300000D02*
X112350000Y-111300000D01*
X112000000Y-111300000D02*
X112000000Y-111500000D01*
X112000000Y-111300000D02*
X111650000Y-110800000D01*
X111650000Y-110800000D02*
X112350000Y-110800000D01*
X112350000Y-110800000D02*
X112000000Y-111300000D01*
X112000000Y-110800000D02*
X112000000Y-110550000D01*
%TO.C,D6*%
X112700000Y-36100000D02*
X112700000Y-37900000D01*
X112700000Y-37900000D02*
X111300000Y-37900000D01*
X111300000Y-37900000D02*
X111300000Y-36100000D01*
X111300000Y-36100000D02*
X112700000Y-36100000D01*
X112350000Y-36700000D02*
X111650000Y-36700000D01*
X112000000Y-36700000D02*
X112000000Y-36500000D01*
X112000000Y-36700000D02*
X112350000Y-37200000D01*
X112350000Y-37200000D02*
X111650000Y-37200000D01*
X111650000Y-37200000D02*
X112000000Y-36700000D01*
X112000000Y-37200000D02*
X112000000Y-37450000D01*
%TO.C,D5*%
X111300000Y-29900000D02*
X111300000Y-28100000D01*
X111300000Y-28100000D02*
X112700000Y-28100000D01*
X112700000Y-28100000D02*
X112700000Y-29900000D01*
X112700000Y-29900000D02*
X111300000Y-29900000D01*
X111650000Y-29300000D02*
X112350000Y-29300000D01*
X112000000Y-29300000D02*
X112000000Y-29500000D01*
X112000000Y-29300000D02*
X111650000Y-28800000D01*
X111650000Y-28800000D02*
X112350000Y-28800000D01*
X112350000Y-28800000D02*
X112000000Y-29300000D01*
X112000000Y-28800000D02*
X112000000Y-28550000D01*
%TO.C,D4*%
X112700000Y-91100000D02*
X112700000Y-92900000D01*
X112700000Y-92900000D02*
X111300000Y-92900000D01*
X111300000Y-92900000D02*
X111300000Y-91100000D01*
X111300000Y-91100000D02*
X112700000Y-91100000D01*
X112350000Y-91700000D02*
X111650000Y-91700000D01*
X112000000Y-91700000D02*
X112000000Y-91500000D01*
X112000000Y-91700000D02*
X112350000Y-92200000D01*
X112350000Y-92200000D02*
X111650000Y-92200000D01*
X111650000Y-92200000D02*
X112000000Y-91700000D01*
X112000000Y-92200000D02*
X112000000Y-92450000D01*
%TO.C,D3*%
X111300000Y-83900000D02*
X111300000Y-82100000D01*
X111300000Y-82100000D02*
X112700000Y-82100000D01*
X112700000Y-82100000D02*
X112700000Y-83900000D01*
X112700000Y-83900000D02*
X111300000Y-83900000D01*
X111650000Y-83300000D02*
X112350000Y-83300000D01*
X112000000Y-83300000D02*
X112000000Y-83500000D01*
X112000000Y-83300000D02*
X111650000Y-82800000D01*
X111650000Y-82800000D02*
X112350000Y-82800000D01*
X112350000Y-82800000D02*
X112000000Y-83300000D01*
X112000000Y-82800000D02*
X112000000Y-82550000D01*
%TO.C,D2*%
X112700000Y-63100000D02*
X112700000Y-64900000D01*
X112700000Y-64900000D02*
X111300000Y-64900000D01*
X111300000Y-64900000D02*
X111300000Y-63100000D01*
X111300000Y-63100000D02*
X112700000Y-63100000D01*
X112350000Y-63700000D02*
X111650000Y-63700000D01*
X112000000Y-63700000D02*
X112000000Y-63500000D01*
X112000000Y-63700000D02*
X112350000Y-64200000D01*
X112350000Y-64200000D02*
X111650000Y-64200000D01*
X111650000Y-64200000D02*
X112000000Y-63700000D01*
X112000000Y-64200000D02*
X112000000Y-64450000D01*
%TO.C,D1*%
X111300000Y-56900000D02*
X111300000Y-55100000D01*
X111300000Y-55100000D02*
X112700000Y-55100000D01*
X112700000Y-55100000D02*
X112700000Y-56900000D01*
X112700000Y-56900000D02*
X111300000Y-56900000D01*
X111650000Y-56300000D02*
X112350000Y-56300000D01*
X112000000Y-56300000D02*
X112000000Y-56500000D01*
X112000000Y-56300000D02*
X111650000Y-55800000D01*
X111650000Y-55800000D02*
X112350000Y-55800000D01*
X112350000Y-55800000D02*
X112000000Y-56300000D01*
X112000000Y-55800000D02*
X112000000Y-55550000D01*
%TO.C,C1*%
X139462000Y-68164000D02*
X139462000Y-66964000D01*
X139462000Y-66964000D02*
X141462000Y-66964000D01*
X141462000Y-66964000D02*
X141462000Y-68164000D01*
X141462000Y-68164000D02*
X139462000Y-68164000D01*
D11*
%TO.C,SW4*%
X119500000Y-32500000D02*
X125500000Y-32500000D01*
X122500000Y-29500000D02*
X122500000Y-35500000D01*
X116500000Y-27800000D02*
X117500000Y-26700000D01*
X116500000Y-38300000D02*
X116500000Y-27800000D01*
X128500000Y-38300000D02*
X116500000Y-38300000D01*
X128500000Y-26700000D02*
X128500000Y-38300000D01*
X117500000Y-26700000D02*
X128500000Y-26700000D01*
X125500000Y-32500000D02*
G75*
G03*
X125500000Y-32500000I-3000000J0D01*
G01*
%TO.C,SW3*%
X119500000Y-87500000D02*
X125500000Y-87500000D01*
X122500000Y-84500000D02*
X122500000Y-90500000D01*
X116500000Y-82800000D02*
X117500000Y-81700000D01*
X116500000Y-93300000D02*
X116500000Y-82800000D01*
X128500000Y-93300000D02*
X116500000Y-93300000D01*
X128500000Y-81700000D02*
X128500000Y-93300000D01*
X117500000Y-81700000D02*
X128500000Y-81700000D01*
X125500000Y-87500000D02*
G75*
G03*
X125500000Y-87500000I-3000000J0D01*
G01*
%TO.C,SW2*%
X119500000Y-60000000D02*
X125500000Y-60000000D01*
X122500000Y-57000000D02*
X122500000Y-63000000D01*
X116500000Y-55300000D02*
X117500000Y-54200000D01*
X116500000Y-65800000D02*
X116500000Y-55300000D01*
X128500000Y-65800000D02*
X116500000Y-65800000D01*
X128500000Y-54200000D02*
X128500000Y-65800000D01*
X117500000Y-54200000D02*
X128500000Y-54200000D01*
X125500000Y-60000000D02*
G75*
G03*
X125500000Y-60000000I-3000000J0D01*
G01*
%TO.C,SW1*%
X119500000Y-115000000D02*
X125500000Y-115000000D01*
X122500000Y-112000000D02*
X122500000Y-118000000D01*
X116500000Y-110300000D02*
X117500000Y-109200000D01*
X116500000Y-120800000D02*
X116500000Y-110300000D01*
X128500000Y-120800000D02*
X116500000Y-120800000D01*
X128500000Y-109200000D02*
X128500000Y-120800000D01*
X117500000Y-109200000D02*
X128500000Y-109200000D01*
X125500000Y-115000000D02*
G75*
G03*
X125500000Y-115000000I-3000000J0D01*
G01*
D10*
%TO.C,R1*%
X147300000Y-96100000D02*
X147300000Y-94900000D01*
X147300000Y-94900000D02*
X149300000Y-94900000D01*
X149300000Y-94900000D02*
X149300000Y-96100000D01*
X149300000Y-96100000D02*
X147300000Y-96100000D01*
D12*
%TO.C,P7*%
X138813000Y-49301000D02*
X152656000Y-49301000D01*
X151640000Y-64287000D02*
X137670000Y-64287000D01*
X137670000Y-64287000D02*
X137670000Y-50698000D01*
X137670000Y-50698000D02*
X138813000Y-50698000D01*
X138813000Y-50698000D02*
X138813000Y-49301000D01*
D10*
%TO.C,J2*%
X137230000Y-43135000D02*
X137230000Y-41230000D01*
X137230000Y-41230000D02*
X147390000Y-41230000D01*
X147390000Y-41230000D02*
X147390000Y-43770000D01*
X147390000Y-43770000D02*
X137865000Y-43770000D01*
X137865000Y-43770000D02*
X137230000Y-43135000D01*
%TO.C,J1*%
X149550000Y-33465000D02*
X134270000Y-33465000D01*
X149010000Y-32915000D02*
X134830000Y-32915000D01*
X149550000Y-24615000D02*
X134270000Y-24615000D01*
X149010000Y-25165000D02*
X144160000Y-25165000D01*
X139660000Y-25165000D02*
X134830000Y-25165000D01*
X144160000Y-25165000D02*
X144160000Y-24615000D01*
X139660000Y-25165000D02*
X139660000Y-24615000D01*
X149550000Y-33465000D02*
X149550000Y-24615000D01*
X149010000Y-32915000D02*
X149010000Y-25165000D01*
X134270000Y-33465000D02*
X134270000Y-24615000D01*
X134830000Y-32915000D02*
X134830000Y-25165000D01*
X149550000Y-33465000D02*
X149010000Y-32915000D01*
X134270000Y-33465000D02*
X134830000Y-32915000D01*
X149550000Y-24615000D02*
X149010000Y-25165000D01*
X134270000Y-24615000D02*
X134830000Y-25165000D01*
%TD*%
%TO.C,SW5*%
D13*
X149104761Y-43324285D02*
X149152380Y-43181428D01*
X149152380Y-42943333D01*
X149104761Y-42848095D01*
X149057142Y-42800476D01*
X148961904Y-42752857D01*
X148866666Y-42752857D01*
X148771428Y-42800476D01*
X148723809Y-42848095D01*
X148676190Y-42943333D01*
X148628571Y-43133809D01*
X148580952Y-43229047D01*
X148533333Y-43276666D01*
X148438095Y-43324285D01*
X148342857Y-43324285D01*
X148247619Y-43276666D01*
X148200000Y-43229047D01*
X148152380Y-43133809D01*
X148152380Y-42895714D01*
X148200000Y-42752857D01*
X148152380Y-42419523D02*
X149152380Y-42181428D01*
X148438095Y-41990952D01*
X149152380Y-41800476D01*
X148152380Y-41562380D01*
X149247619Y-41419523D02*
X149247619Y-40657619D01*
X149152380Y-40419523D02*
X148152380Y-40419523D01*
X148152380Y-40181428D01*
X148200000Y-40038571D01*
X148295238Y-39943333D01*
X148390476Y-39895714D01*
X148580952Y-39848095D01*
X148723809Y-39848095D01*
X148914285Y-39895714D01*
X149009523Y-39943333D01*
X149104761Y-40038571D01*
X149152380Y-40181428D01*
X149152380Y-40419523D01*
X149152380Y-39419523D02*
X148152380Y-39419523D01*
X149152380Y-38943333D02*
X148152380Y-38943333D01*
X148152380Y-38562380D01*
X148200000Y-38467142D01*
X148247619Y-38419523D01*
X148342857Y-38371904D01*
X148485714Y-38371904D01*
X148580952Y-38419523D01*
X148628571Y-38467142D01*
X148676190Y-38562380D01*
X148676190Y-38943333D01*
X149247619Y-38181428D02*
X149247619Y-37419523D01*
X149152380Y-37276666D02*
X148485714Y-36752857D01*
X148485714Y-37276666D02*
X149152380Y-36752857D01*
X148152380Y-36181428D02*
X148152380Y-36086190D01*
X148200000Y-35990952D01*
X148247619Y-35943333D01*
X148342857Y-35895714D01*
X148533333Y-35848095D01*
X148771428Y-35848095D01*
X148961904Y-35895714D01*
X149057142Y-35943333D01*
X149104761Y-35990952D01*
X149152380Y-36086190D01*
X149152380Y-36181428D01*
X149104761Y-36276666D01*
X149057142Y-36324285D01*
X148961904Y-36371904D01*
X148771428Y-36419523D01*
X148533333Y-36419523D01*
X148342857Y-36371904D01*
X148247619Y-36324285D01*
X148200000Y-36276666D01*
X148152380Y-36181428D01*
X148152380Y-35514761D02*
X148152380Y-34895714D01*
X148533333Y-35229047D01*
X148533333Y-35086190D01*
X148580952Y-34990952D01*
X148628571Y-34943333D01*
X148723809Y-34895714D01*
X148961904Y-34895714D01*
X149057142Y-34943333D01*
X149104761Y-34990952D01*
X149152380Y-35086190D01*
X149152380Y-35371904D01*
X149104761Y-35467142D01*
X149057142Y-35514761D01*
D11*
X159059404Y-41084047D02*
X159021309Y-41160238D01*
X158983214Y-41198333D01*
X158907023Y-41236428D01*
X158678452Y-41236428D01*
X158602261Y-41198333D01*
X158564166Y-41160238D01*
X158526071Y-41084047D01*
X158526071Y-40969761D01*
X158564166Y-40893571D01*
X158602261Y-40855476D01*
X158678452Y-40817380D01*
X158907023Y-40817380D01*
X158983214Y-40855476D01*
X159021309Y-40893571D01*
X159059404Y-40969761D01*
X159059404Y-41084047D01*
X158526071Y-40474523D02*
X159059404Y-40474523D01*
X158602261Y-40474523D02*
X158564166Y-40436428D01*
X158526071Y-40360238D01*
X158526071Y-40245952D01*
X158564166Y-40169761D01*
X158640357Y-40131666D01*
X159059404Y-40131666D01*
X153593333Y-42893809D02*
X153707619Y-42931904D01*
X153898095Y-42931904D01*
X153974285Y-42893809D01*
X154012380Y-42855714D01*
X154050476Y-42779523D01*
X154050476Y-42703333D01*
X154012380Y-42627142D01*
X153974285Y-42589047D01*
X153898095Y-42550952D01*
X153745714Y-42512857D01*
X153669523Y-42474761D01*
X153631428Y-42436666D01*
X153593333Y-42360476D01*
X153593333Y-42284285D01*
X153631428Y-42208095D01*
X153669523Y-42170000D01*
X153745714Y-42131904D01*
X153936190Y-42131904D01*
X154050476Y-42170000D01*
X154317142Y-42131904D02*
X154507619Y-42931904D01*
X154660000Y-42360476D01*
X154812380Y-42931904D01*
X155002857Y-42131904D01*
X155688571Y-42131904D02*
X155307619Y-42131904D01*
X155269523Y-42512857D01*
X155307619Y-42474761D01*
X155383809Y-42436666D01*
X155574285Y-42436666D01*
X155650476Y-42474761D01*
X155688571Y-42512857D01*
X155726666Y-42589047D01*
X155726666Y-42779523D01*
X155688571Y-42855714D01*
X155650476Y-42893809D01*
X155574285Y-42931904D01*
X155383809Y-42931904D01*
X155307619Y-42893809D01*
X155269523Y-42855714D01*
%TO.C,R4*%
D13*
X147704761Y-100902380D02*
X147133333Y-100902380D01*
X147419047Y-100902380D02*
X147419047Y-99902380D01*
X147323809Y-100045238D01*
X147228571Y-100140476D01*
X147133333Y-100188095D01*
X148323809Y-99902380D02*
X148419047Y-99902380D01*
X148514285Y-99950000D01*
X148561904Y-99997619D01*
X148609523Y-100092857D01*
X148657142Y-100283333D01*
X148657142Y-100521428D01*
X148609523Y-100711904D01*
X148561904Y-100807142D01*
X148514285Y-100854761D01*
X148419047Y-100902380D01*
X148323809Y-100902380D01*
X148228571Y-100854761D01*
X148180952Y-100807142D01*
X148133333Y-100711904D01*
X148085714Y-100521428D01*
X148085714Y-100283333D01*
X148133333Y-100092857D01*
X148180952Y-99997619D01*
X148228571Y-99950000D01*
X148323809Y-99902380D01*
X149085714Y-100902380D02*
X149085714Y-99902380D01*
X149180952Y-100521428D02*
X149466666Y-100902380D01*
X149466666Y-100235714D02*
X149085714Y-100616666D01*
D14*
X148216666Y-99026190D02*
X148050000Y-98788095D01*
X147930952Y-99026190D02*
X147930952Y-98526190D01*
X148121428Y-98526190D01*
X148169047Y-98550000D01*
X148192857Y-98573809D01*
X148216666Y-98621428D01*
X148216666Y-98692857D01*
X148192857Y-98740476D01*
X148169047Y-98764285D01*
X148121428Y-98788095D01*
X147930952Y-98788095D01*
X148645238Y-98692857D02*
X148645238Y-99026190D01*
X148526190Y-98502380D02*
X148407142Y-98859523D01*
X148716666Y-98859523D01*
%TO.C,R3*%
D13*
X147704761Y-90002380D02*
X147133333Y-90002380D01*
X147419047Y-90002380D02*
X147419047Y-89002380D01*
X147323809Y-89145238D01*
X147228571Y-89240476D01*
X147133333Y-89288095D01*
X148323809Y-89002380D02*
X148419047Y-89002380D01*
X148514285Y-89050000D01*
X148561904Y-89097619D01*
X148609523Y-89192857D01*
X148657142Y-89383333D01*
X148657142Y-89621428D01*
X148609523Y-89811904D01*
X148561904Y-89907142D01*
X148514285Y-89954761D01*
X148419047Y-90002380D01*
X148323809Y-90002380D01*
X148228571Y-89954761D01*
X148180952Y-89907142D01*
X148133333Y-89811904D01*
X148085714Y-89621428D01*
X148085714Y-89383333D01*
X148133333Y-89192857D01*
X148180952Y-89097619D01*
X148228571Y-89050000D01*
X148323809Y-89002380D01*
X149085714Y-90002380D02*
X149085714Y-89002380D01*
X149180952Y-89621428D02*
X149466666Y-90002380D01*
X149466666Y-89335714D02*
X149085714Y-89716666D01*
D14*
X148216666Y-91426190D02*
X148050000Y-91188095D01*
X147930952Y-91426190D02*
X147930952Y-90926190D01*
X148121428Y-90926190D01*
X148169047Y-90950000D01*
X148192857Y-90973809D01*
X148216666Y-91021428D01*
X148216666Y-91092857D01*
X148192857Y-91140476D01*
X148169047Y-91164285D01*
X148121428Y-91188095D01*
X147930952Y-91188095D01*
X148383333Y-90926190D02*
X148692857Y-90926190D01*
X148526190Y-91116666D01*
X148597619Y-91116666D01*
X148645238Y-91140476D01*
X148669047Y-91164285D01*
X148692857Y-91211904D01*
X148692857Y-91330952D01*
X148669047Y-91378571D01*
X148645238Y-91402380D01*
X148597619Y-91426190D01*
X148454761Y-91426190D01*
X148407142Y-91402380D01*
X148383333Y-91378571D01*
%TO.C,R2*%
D13*
X147704761Y-75202380D02*
X147133333Y-75202380D01*
X147419047Y-75202380D02*
X147419047Y-74202380D01*
X147323809Y-74345238D01*
X147228571Y-74440476D01*
X147133333Y-74488095D01*
X148323809Y-74202380D02*
X148419047Y-74202380D01*
X148514285Y-74250000D01*
X148561904Y-74297619D01*
X148609523Y-74392857D01*
X148657142Y-74583333D01*
X148657142Y-74821428D01*
X148609523Y-75011904D01*
X148561904Y-75107142D01*
X148514285Y-75154761D01*
X148419047Y-75202380D01*
X148323809Y-75202380D01*
X148228571Y-75154761D01*
X148180952Y-75107142D01*
X148133333Y-75011904D01*
X148085714Y-74821428D01*
X148085714Y-74583333D01*
X148133333Y-74392857D01*
X148180952Y-74297619D01*
X148228571Y-74250000D01*
X148323809Y-74202380D01*
X149085714Y-75202380D02*
X149085714Y-74202380D01*
X149180952Y-74821428D02*
X149466666Y-75202380D01*
X149466666Y-74535714D02*
X149085714Y-74916666D01*
D14*
X148216666Y-73326190D02*
X148050000Y-73088095D01*
X147930952Y-73326190D02*
X147930952Y-72826190D01*
X148121428Y-72826190D01*
X148169047Y-72850000D01*
X148192857Y-72873809D01*
X148216666Y-72921428D01*
X148216666Y-72992857D01*
X148192857Y-73040476D01*
X148169047Y-73064285D01*
X148121428Y-73088095D01*
X147930952Y-73088095D01*
X148407142Y-72873809D02*
X148430952Y-72850000D01*
X148478571Y-72826190D01*
X148597619Y-72826190D01*
X148645238Y-72850000D01*
X148669047Y-72873809D01*
X148692857Y-72921428D01*
X148692857Y-72969047D01*
X148669047Y-73040476D01*
X148383333Y-73326190D01*
X148692857Y-73326190D01*
%TO.C,D12*%
D13*
X135352380Y-118614285D02*
X135352380Y-119185714D01*
X135352380Y-118900000D02*
X134352380Y-118900000D01*
X134495238Y-118995238D01*
X134590476Y-119090476D01*
X134638095Y-119185714D01*
X135352380Y-118185714D02*
X134352380Y-118185714D01*
X135352380Y-117614285D01*
X134352380Y-117614285D01*
X134685714Y-116709523D02*
X135352380Y-116709523D01*
X134304761Y-116947619D02*
X135019047Y-117185714D01*
X135019047Y-116566666D01*
X135352380Y-115661904D02*
X135352380Y-116233333D01*
X135352380Y-115947619D02*
X134352380Y-115947619D01*
X134495238Y-116042857D01*
X134590476Y-116138095D01*
X134638095Y-116233333D01*
X134685714Y-114804761D02*
X135352380Y-114804761D01*
X134304761Y-115042857D02*
X135019047Y-115280952D01*
X135019047Y-114661904D01*
X134780952Y-114138095D02*
X134733333Y-114233333D01*
X134685714Y-114280952D01*
X134590476Y-114328571D01*
X134542857Y-114328571D01*
X134447619Y-114280952D01*
X134400000Y-114233333D01*
X134352380Y-114138095D01*
X134352380Y-113947619D01*
X134400000Y-113852380D01*
X134447619Y-113804761D01*
X134542857Y-113757142D01*
X134590476Y-113757142D01*
X134685714Y-113804761D01*
X134733333Y-113852380D01*
X134780952Y-113947619D01*
X134780952Y-114138095D01*
X134828571Y-114233333D01*
X134876190Y-114280952D01*
X134971428Y-114328571D01*
X135161904Y-114328571D01*
X135257142Y-114280952D01*
X135304761Y-114233333D01*
X135352380Y-114138095D01*
X135352380Y-113947619D01*
X135304761Y-113852380D01*
X135257142Y-113804761D01*
X135161904Y-113757142D01*
X134971428Y-113757142D01*
X134876190Y-113804761D01*
X134828571Y-113852380D01*
X134780952Y-113947619D01*
X134352380Y-113423809D02*
X135352380Y-113185714D01*
X134638095Y-112995238D01*
X135352380Y-112804761D01*
X134352380Y-112566666D01*
X131602380Y-117214285D02*
X130602380Y-117214285D01*
X130602380Y-116976190D01*
X130650000Y-116833333D01*
X130745238Y-116738095D01*
X130840476Y-116690476D01*
X131030952Y-116642857D01*
X131173809Y-116642857D01*
X131364285Y-116690476D01*
X131459523Y-116738095D01*
X131554761Y-116833333D01*
X131602380Y-116976190D01*
X131602380Y-117214285D01*
X131602380Y-115690476D02*
X131602380Y-116261904D01*
X131602380Y-115976190D02*
X130602380Y-115976190D01*
X130745238Y-116071428D01*
X130840476Y-116166666D01*
X130888095Y-116261904D01*
X130697619Y-115309523D02*
X130650000Y-115261904D01*
X130602380Y-115166666D01*
X130602380Y-114928571D01*
X130650000Y-114833333D01*
X130697619Y-114785714D01*
X130792857Y-114738095D01*
X130888095Y-114738095D01*
X131030952Y-114785714D01*
X131602380Y-115357142D01*
X131602380Y-114738095D01*
%TO.C,D11*%
X131552380Y-39814285D02*
X131552380Y-40385714D01*
X131552380Y-40100000D02*
X130552380Y-40100000D01*
X130695238Y-40195238D01*
X130790476Y-40290476D01*
X130838095Y-40385714D01*
X131552380Y-39385714D02*
X130552380Y-39385714D01*
X131552380Y-38814285D01*
X130552380Y-38814285D01*
X130885714Y-37909523D02*
X131552380Y-37909523D01*
X130504761Y-38147619D02*
X131219047Y-38385714D01*
X131219047Y-37766666D01*
X131552380Y-36861904D02*
X131552380Y-37433333D01*
X131552380Y-37147619D02*
X130552380Y-37147619D01*
X130695238Y-37242857D01*
X130790476Y-37338095D01*
X130838095Y-37433333D01*
X130885714Y-36004761D02*
X131552380Y-36004761D01*
X130504761Y-36242857D02*
X131219047Y-36480952D01*
X131219047Y-35861904D01*
X130980952Y-35338095D02*
X130933333Y-35433333D01*
X130885714Y-35480952D01*
X130790476Y-35528571D01*
X130742857Y-35528571D01*
X130647619Y-35480952D01*
X130600000Y-35433333D01*
X130552380Y-35338095D01*
X130552380Y-35147619D01*
X130600000Y-35052380D01*
X130647619Y-35004761D01*
X130742857Y-34957142D01*
X130790476Y-34957142D01*
X130885714Y-35004761D01*
X130933333Y-35052380D01*
X130980952Y-35147619D01*
X130980952Y-35338095D01*
X131028571Y-35433333D01*
X131076190Y-35480952D01*
X131171428Y-35528571D01*
X131361904Y-35528571D01*
X131457142Y-35480952D01*
X131504761Y-35433333D01*
X131552380Y-35338095D01*
X131552380Y-35147619D01*
X131504761Y-35052380D01*
X131457142Y-35004761D01*
X131361904Y-34957142D01*
X131171428Y-34957142D01*
X131076190Y-35004761D01*
X131028571Y-35052380D01*
X130980952Y-35147619D01*
X130552380Y-34623809D02*
X131552380Y-34385714D01*
X130838095Y-34195238D01*
X131552380Y-34004761D01*
X130552380Y-33766666D01*
X135302380Y-38214285D02*
X134302380Y-38214285D01*
X134302380Y-37976190D01*
X134350000Y-37833333D01*
X134445238Y-37738095D01*
X134540476Y-37690476D01*
X134730952Y-37642857D01*
X134873809Y-37642857D01*
X135064285Y-37690476D01*
X135159523Y-37738095D01*
X135254761Y-37833333D01*
X135302380Y-37976190D01*
X135302380Y-38214285D01*
X135302380Y-36690476D02*
X135302380Y-37261904D01*
X135302380Y-36976190D02*
X134302380Y-36976190D01*
X134445238Y-37071428D01*
X134540476Y-37166666D01*
X134588095Y-37261904D01*
X135302380Y-35738095D02*
X135302380Y-36309523D01*
X135302380Y-36023809D02*
X134302380Y-36023809D01*
X134445238Y-36119047D01*
X134540476Y-36214285D01*
X134588095Y-36309523D01*
%TO.C,D10*%
X131552380Y-94814285D02*
X131552380Y-95385714D01*
X131552380Y-95100000D02*
X130552380Y-95100000D01*
X130695238Y-95195238D01*
X130790476Y-95290476D01*
X130838095Y-95385714D01*
X131552380Y-94385714D02*
X130552380Y-94385714D01*
X131552380Y-93814285D01*
X130552380Y-93814285D01*
X130885714Y-92909523D02*
X131552380Y-92909523D01*
X130504761Y-93147619D02*
X131219047Y-93385714D01*
X131219047Y-92766666D01*
X131552380Y-91861904D02*
X131552380Y-92433333D01*
X131552380Y-92147619D02*
X130552380Y-92147619D01*
X130695238Y-92242857D01*
X130790476Y-92338095D01*
X130838095Y-92433333D01*
X130885714Y-91004761D02*
X131552380Y-91004761D01*
X130504761Y-91242857D02*
X131219047Y-91480952D01*
X131219047Y-90861904D01*
X130980952Y-90338095D02*
X130933333Y-90433333D01*
X130885714Y-90480952D01*
X130790476Y-90528571D01*
X130742857Y-90528571D01*
X130647619Y-90480952D01*
X130600000Y-90433333D01*
X130552380Y-90338095D01*
X130552380Y-90147619D01*
X130600000Y-90052380D01*
X130647619Y-90004761D01*
X130742857Y-89957142D01*
X130790476Y-89957142D01*
X130885714Y-90004761D01*
X130933333Y-90052380D01*
X130980952Y-90147619D01*
X130980952Y-90338095D01*
X131028571Y-90433333D01*
X131076190Y-90480952D01*
X131171428Y-90528571D01*
X131361904Y-90528571D01*
X131457142Y-90480952D01*
X131504761Y-90433333D01*
X131552380Y-90338095D01*
X131552380Y-90147619D01*
X131504761Y-90052380D01*
X131457142Y-90004761D01*
X131361904Y-89957142D01*
X131171428Y-89957142D01*
X131076190Y-90004761D01*
X131028571Y-90052380D01*
X130980952Y-90147619D01*
X130552380Y-89623809D02*
X131552380Y-89385714D01*
X130838095Y-89195238D01*
X131552380Y-89004761D01*
X130552380Y-88766666D01*
X135302380Y-93214285D02*
X134302380Y-93214285D01*
X134302380Y-92976190D01*
X134350000Y-92833333D01*
X134445238Y-92738095D01*
X134540476Y-92690476D01*
X134730952Y-92642857D01*
X134873809Y-92642857D01*
X135064285Y-92690476D01*
X135159523Y-92738095D01*
X135254761Y-92833333D01*
X135302380Y-92976190D01*
X135302380Y-93214285D01*
X135302380Y-91690476D02*
X135302380Y-92261904D01*
X135302380Y-91976190D02*
X134302380Y-91976190D01*
X134445238Y-92071428D01*
X134540476Y-92166666D01*
X134588095Y-92261904D01*
X134302380Y-91071428D02*
X134302380Y-90976190D01*
X134350000Y-90880952D01*
X134397619Y-90833333D01*
X134492857Y-90785714D01*
X134683333Y-90738095D01*
X134921428Y-90738095D01*
X135111904Y-90785714D01*
X135207142Y-90833333D01*
X135254761Y-90880952D01*
X135302380Y-90976190D01*
X135302380Y-91071428D01*
X135254761Y-91166666D01*
X135207142Y-91214285D01*
X135111904Y-91261904D01*
X134921428Y-91309523D01*
X134683333Y-91309523D01*
X134492857Y-91261904D01*
X134397619Y-91214285D01*
X134350000Y-91166666D01*
X134302380Y-91071428D01*
%TO.C,D9*%
X128052380Y-72814285D02*
X128052380Y-73385714D01*
X128052380Y-73100000D02*
X127052380Y-73100000D01*
X127195238Y-73195238D01*
X127290476Y-73290476D01*
X127338095Y-73385714D01*
X128052380Y-72385714D02*
X127052380Y-72385714D01*
X128052380Y-71814285D01*
X127052380Y-71814285D01*
X127385714Y-70909523D02*
X128052380Y-70909523D01*
X127004761Y-71147619D02*
X127719047Y-71385714D01*
X127719047Y-70766666D01*
X128052380Y-69861904D02*
X128052380Y-70433333D01*
X128052380Y-70147619D02*
X127052380Y-70147619D01*
X127195238Y-70242857D01*
X127290476Y-70338095D01*
X127338095Y-70433333D01*
X127385714Y-69004761D02*
X128052380Y-69004761D01*
X127004761Y-69242857D02*
X127719047Y-69480952D01*
X127719047Y-68861904D01*
X127480952Y-68338095D02*
X127433333Y-68433333D01*
X127385714Y-68480952D01*
X127290476Y-68528571D01*
X127242857Y-68528571D01*
X127147619Y-68480952D01*
X127100000Y-68433333D01*
X127052380Y-68338095D01*
X127052380Y-68147619D01*
X127100000Y-68052380D01*
X127147619Y-68004761D01*
X127242857Y-67957142D01*
X127290476Y-67957142D01*
X127385714Y-68004761D01*
X127433333Y-68052380D01*
X127480952Y-68147619D01*
X127480952Y-68338095D01*
X127528571Y-68433333D01*
X127576190Y-68480952D01*
X127671428Y-68528571D01*
X127861904Y-68528571D01*
X127957142Y-68480952D01*
X128004761Y-68433333D01*
X128052380Y-68338095D01*
X128052380Y-68147619D01*
X128004761Y-68052380D01*
X127957142Y-68004761D01*
X127861904Y-67957142D01*
X127671428Y-67957142D01*
X127576190Y-68004761D01*
X127528571Y-68052380D01*
X127480952Y-68147619D01*
X127052380Y-67623809D02*
X128052380Y-67385714D01*
X127338095Y-67195238D01*
X128052380Y-67004761D01*
X127052380Y-66766666D01*
X131802380Y-70738095D02*
X130802380Y-70738095D01*
X130802380Y-70500000D01*
X130850000Y-70357142D01*
X130945238Y-70261904D01*
X131040476Y-70214285D01*
X131230952Y-70166666D01*
X131373809Y-70166666D01*
X131564285Y-70214285D01*
X131659523Y-70261904D01*
X131754761Y-70357142D01*
X131802380Y-70500000D01*
X131802380Y-70738095D01*
X131802380Y-69690476D02*
X131802380Y-69500000D01*
X131754761Y-69404761D01*
X131707142Y-69357142D01*
X131564285Y-69261904D01*
X131373809Y-69214285D01*
X130992857Y-69214285D01*
X130897619Y-69261904D01*
X130850000Y-69309523D01*
X130802380Y-69404761D01*
X130802380Y-69595238D01*
X130850000Y-69690476D01*
X130897619Y-69738095D01*
X130992857Y-69785714D01*
X131230952Y-69785714D01*
X131326190Y-69738095D01*
X131373809Y-69690476D01*
X131421428Y-69595238D01*
X131421428Y-69404761D01*
X131373809Y-69309523D01*
X131326190Y-69261904D01*
X131230952Y-69214285D01*
%TO.C,D8*%
X110552380Y-121814285D02*
X110552380Y-122385714D01*
X110552380Y-122100000D02*
X109552380Y-122100000D01*
X109695238Y-122195238D01*
X109790476Y-122290476D01*
X109838095Y-122385714D01*
X110552380Y-121385714D02*
X109552380Y-121385714D01*
X110552380Y-120814285D01*
X109552380Y-120814285D01*
X109885714Y-119909523D02*
X110552380Y-119909523D01*
X109504761Y-120147619D02*
X110219047Y-120385714D01*
X110219047Y-119766666D01*
X110552380Y-118861904D02*
X110552380Y-119433333D01*
X110552380Y-119147619D02*
X109552380Y-119147619D01*
X109695238Y-119242857D01*
X109790476Y-119338095D01*
X109838095Y-119433333D01*
X109885714Y-118004761D02*
X110552380Y-118004761D01*
X109504761Y-118242857D02*
X110219047Y-118480952D01*
X110219047Y-117861904D01*
X109980952Y-117338095D02*
X109933333Y-117433333D01*
X109885714Y-117480952D01*
X109790476Y-117528571D01*
X109742857Y-117528571D01*
X109647619Y-117480952D01*
X109600000Y-117433333D01*
X109552380Y-117338095D01*
X109552380Y-117147619D01*
X109600000Y-117052380D01*
X109647619Y-117004761D01*
X109742857Y-116957142D01*
X109790476Y-116957142D01*
X109885714Y-117004761D01*
X109933333Y-117052380D01*
X109980952Y-117147619D01*
X109980952Y-117338095D01*
X110028571Y-117433333D01*
X110076190Y-117480952D01*
X110171428Y-117528571D01*
X110361904Y-117528571D01*
X110457142Y-117480952D01*
X110504761Y-117433333D01*
X110552380Y-117338095D01*
X110552380Y-117147619D01*
X110504761Y-117052380D01*
X110457142Y-117004761D01*
X110361904Y-116957142D01*
X110171428Y-116957142D01*
X110076190Y-117004761D01*
X110028571Y-117052380D01*
X109980952Y-117147619D01*
X109552380Y-116623809D02*
X110552380Y-116385714D01*
X109838095Y-116195238D01*
X110552380Y-116004761D01*
X109552380Y-115766666D01*
X114302380Y-119738095D02*
X113302380Y-119738095D01*
X113302380Y-119500000D01*
X113350000Y-119357142D01*
X113445238Y-119261904D01*
X113540476Y-119214285D01*
X113730952Y-119166666D01*
X113873809Y-119166666D01*
X114064285Y-119214285D01*
X114159523Y-119261904D01*
X114254761Y-119357142D01*
X114302380Y-119500000D01*
X114302380Y-119738095D01*
X113730952Y-118595238D02*
X113683333Y-118690476D01*
X113635714Y-118738095D01*
X113540476Y-118785714D01*
X113492857Y-118785714D01*
X113397619Y-118738095D01*
X113350000Y-118690476D01*
X113302380Y-118595238D01*
X113302380Y-118404761D01*
X113350000Y-118309523D01*
X113397619Y-118261904D01*
X113492857Y-118214285D01*
X113540476Y-118214285D01*
X113635714Y-118261904D01*
X113683333Y-118309523D01*
X113730952Y-118404761D01*
X113730952Y-118595238D01*
X113778571Y-118690476D01*
X113826190Y-118738095D01*
X113921428Y-118785714D01*
X114111904Y-118785714D01*
X114207142Y-118738095D01*
X114254761Y-118690476D01*
X114302380Y-118595238D01*
X114302380Y-118404761D01*
X114254761Y-118309523D01*
X114207142Y-118261904D01*
X114111904Y-118214285D01*
X113921428Y-118214285D01*
X113826190Y-118261904D01*
X113778571Y-118309523D01*
X113730952Y-118404761D01*
%TO.C,D7*%
X114352380Y-113614285D02*
X114352380Y-114185714D01*
X114352380Y-113900000D02*
X113352380Y-113900000D01*
X113495238Y-113995238D01*
X113590476Y-114090476D01*
X113638095Y-114185714D01*
X114352380Y-113185714D02*
X113352380Y-113185714D01*
X114352380Y-112614285D01*
X113352380Y-112614285D01*
X113685714Y-111709523D02*
X114352380Y-111709523D01*
X113304761Y-111947619D02*
X114019047Y-112185714D01*
X114019047Y-111566666D01*
X114352380Y-110661904D02*
X114352380Y-111233333D01*
X114352380Y-110947619D02*
X113352380Y-110947619D01*
X113495238Y-111042857D01*
X113590476Y-111138095D01*
X113638095Y-111233333D01*
X113685714Y-109804761D02*
X114352380Y-109804761D01*
X113304761Y-110042857D02*
X114019047Y-110280952D01*
X114019047Y-109661904D01*
X113780952Y-109138095D02*
X113733333Y-109233333D01*
X113685714Y-109280952D01*
X113590476Y-109328571D01*
X113542857Y-109328571D01*
X113447619Y-109280952D01*
X113400000Y-109233333D01*
X113352380Y-109138095D01*
X113352380Y-108947619D01*
X113400000Y-108852380D01*
X113447619Y-108804761D01*
X113542857Y-108757142D01*
X113590476Y-108757142D01*
X113685714Y-108804761D01*
X113733333Y-108852380D01*
X113780952Y-108947619D01*
X113780952Y-109138095D01*
X113828571Y-109233333D01*
X113876190Y-109280952D01*
X113971428Y-109328571D01*
X114161904Y-109328571D01*
X114257142Y-109280952D01*
X114304761Y-109233333D01*
X114352380Y-109138095D01*
X114352380Y-108947619D01*
X114304761Y-108852380D01*
X114257142Y-108804761D01*
X114161904Y-108757142D01*
X113971428Y-108757142D01*
X113876190Y-108804761D01*
X113828571Y-108852380D01*
X113780952Y-108947619D01*
X113352380Y-108423809D02*
X114352380Y-108185714D01*
X113638095Y-107995238D01*
X114352380Y-107804761D01*
X113352380Y-107566666D01*
X110602380Y-111738095D02*
X109602380Y-111738095D01*
X109602380Y-111500000D01*
X109650000Y-111357142D01*
X109745238Y-111261904D01*
X109840476Y-111214285D01*
X110030952Y-111166666D01*
X110173809Y-111166666D01*
X110364285Y-111214285D01*
X110459523Y-111261904D01*
X110554761Y-111357142D01*
X110602380Y-111500000D01*
X110602380Y-111738095D01*
X109602380Y-110833333D02*
X109602380Y-110166666D01*
X110602380Y-110595238D01*
%TO.C,D6*%
X110552380Y-39814285D02*
X110552380Y-40385714D01*
X110552380Y-40100000D02*
X109552380Y-40100000D01*
X109695238Y-40195238D01*
X109790476Y-40290476D01*
X109838095Y-40385714D01*
X110552380Y-39385714D02*
X109552380Y-39385714D01*
X110552380Y-38814285D01*
X109552380Y-38814285D01*
X109885714Y-37909523D02*
X110552380Y-37909523D01*
X109504761Y-38147619D02*
X110219047Y-38385714D01*
X110219047Y-37766666D01*
X110552380Y-36861904D02*
X110552380Y-37433333D01*
X110552380Y-37147619D02*
X109552380Y-37147619D01*
X109695238Y-37242857D01*
X109790476Y-37338095D01*
X109838095Y-37433333D01*
X109885714Y-36004761D02*
X110552380Y-36004761D01*
X109504761Y-36242857D02*
X110219047Y-36480952D01*
X110219047Y-35861904D01*
X109980952Y-35338095D02*
X109933333Y-35433333D01*
X109885714Y-35480952D01*
X109790476Y-35528571D01*
X109742857Y-35528571D01*
X109647619Y-35480952D01*
X109600000Y-35433333D01*
X109552380Y-35338095D01*
X109552380Y-35147619D01*
X109600000Y-35052380D01*
X109647619Y-35004761D01*
X109742857Y-34957142D01*
X109790476Y-34957142D01*
X109885714Y-35004761D01*
X109933333Y-35052380D01*
X109980952Y-35147619D01*
X109980952Y-35338095D01*
X110028571Y-35433333D01*
X110076190Y-35480952D01*
X110171428Y-35528571D01*
X110361904Y-35528571D01*
X110457142Y-35480952D01*
X110504761Y-35433333D01*
X110552380Y-35338095D01*
X110552380Y-35147619D01*
X110504761Y-35052380D01*
X110457142Y-35004761D01*
X110361904Y-34957142D01*
X110171428Y-34957142D01*
X110076190Y-35004761D01*
X110028571Y-35052380D01*
X109980952Y-35147619D01*
X109552380Y-34623809D02*
X110552380Y-34385714D01*
X109838095Y-34195238D01*
X110552380Y-34004761D01*
X109552380Y-33766666D01*
X114302380Y-37738095D02*
X113302380Y-37738095D01*
X113302380Y-37500000D01*
X113350000Y-37357142D01*
X113445238Y-37261904D01*
X113540476Y-37214285D01*
X113730952Y-37166666D01*
X113873809Y-37166666D01*
X114064285Y-37214285D01*
X114159523Y-37261904D01*
X114254761Y-37357142D01*
X114302380Y-37500000D01*
X114302380Y-37738095D01*
X113302380Y-36309523D02*
X113302380Y-36500000D01*
X113350000Y-36595238D01*
X113397619Y-36642857D01*
X113540476Y-36738095D01*
X113730952Y-36785714D01*
X114111904Y-36785714D01*
X114207142Y-36738095D01*
X114254761Y-36690476D01*
X114302380Y-36595238D01*
X114302380Y-36404761D01*
X114254761Y-36309523D01*
X114207142Y-36261904D01*
X114111904Y-36214285D01*
X113873809Y-36214285D01*
X113778571Y-36261904D01*
X113730952Y-36309523D01*
X113683333Y-36404761D01*
X113683333Y-36595238D01*
X113730952Y-36690476D01*
X113778571Y-36738095D01*
X113873809Y-36785714D01*
%TO.C,D5*%
X114352380Y-31614285D02*
X114352380Y-32185714D01*
X114352380Y-31900000D02*
X113352380Y-31900000D01*
X113495238Y-31995238D01*
X113590476Y-32090476D01*
X113638095Y-32185714D01*
X114352380Y-31185714D02*
X113352380Y-31185714D01*
X114352380Y-30614285D01*
X113352380Y-30614285D01*
X113685714Y-29709523D02*
X114352380Y-29709523D01*
X113304761Y-29947619D02*
X114019047Y-30185714D01*
X114019047Y-29566666D01*
X114352380Y-28661904D02*
X114352380Y-29233333D01*
X114352380Y-28947619D02*
X113352380Y-28947619D01*
X113495238Y-29042857D01*
X113590476Y-29138095D01*
X113638095Y-29233333D01*
X113685714Y-27804761D02*
X114352380Y-27804761D01*
X113304761Y-28042857D02*
X114019047Y-28280952D01*
X114019047Y-27661904D01*
X113780952Y-27138095D02*
X113733333Y-27233333D01*
X113685714Y-27280952D01*
X113590476Y-27328571D01*
X113542857Y-27328571D01*
X113447619Y-27280952D01*
X113400000Y-27233333D01*
X113352380Y-27138095D01*
X113352380Y-26947619D01*
X113400000Y-26852380D01*
X113447619Y-26804761D01*
X113542857Y-26757142D01*
X113590476Y-26757142D01*
X113685714Y-26804761D01*
X113733333Y-26852380D01*
X113780952Y-26947619D01*
X113780952Y-27138095D01*
X113828571Y-27233333D01*
X113876190Y-27280952D01*
X113971428Y-27328571D01*
X114161904Y-27328571D01*
X114257142Y-27280952D01*
X114304761Y-27233333D01*
X114352380Y-27138095D01*
X114352380Y-26947619D01*
X114304761Y-26852380D01*
X114257142Y-26804761D01*
X114161904Y-26757142D01*
X113971428Y-26757142D01*
X113876190Y-26804761D01*
X113828571Y-26852380D01*
X113780952Y-26947619D01*
X113352380Y-26423809D02*
X114352380Y-26185714D01*
X113638095Y-25995238D01*
X114352380Y-25804761D01*
X113352380Y-25566666D01*
X110602380Y-29738095D02*
X109602380Y-29738095D01*
X109602380Y-29500000D01*
X109650000Y-29357142D01*
X109745238Y-29261904D01*
X109840476Y-29214285D01*
X110030952Y-29166666D01*
X110173809Y-29166666D01*
X110364285Y-29214285D01*
X110459523Y-29261904D01*
X110554761Y-29357142D01*
X110602380Y-29500000D01*
X110602380Y-29738095D01*
X109602380Y-28261904D02*
X109602380Y-28738095D01*
X110078571Y-28785714D01*
X110030952Y-28738095D01*
X109983333Y-28642857D01*
X109983333Y-28404761D01*
X110030952Y-28309523D01*
X110078571Y-28261904D01*
X110173809Y-28214285D01*
X110411904Y-28214285D01*
X110507142Y-28261904D01*
X110554761Y-28309523D01*
X110602380Y-28404761D01*
X110602380Y-28642857D01*
X110554761Y-28738095D01*
X110507142Y-28785714D01*
%TO.C,D4*%
X110552380Y-94814285D02*
X110552380Y-95385714D01*
X110552380Y-95100000D02*
X109552380Y-95100000D01*
X109695238Y-95195238D01*
X109790476Y-95290476D01*
X109838095Y-95385714D01*
X110552380Y-94385714D02*
X109552380Y-94385714D01*
X110552380Y-93814285D01*
X109552380Y-93814285D01*
X109885714Y-92909523D02*
X110552380Y-92909523D01*
X109504761Y-93147619D02*
X110219047Y-93385714D01*
X110219047Y-92766666D01*
X110552380Y-91861904D02*
X110552380Y-92433333D01*
X110552380Y-92147619D02*
X109552380Y-92147619D01*
X109695238Y-92242857D01*
X109790476Y-92338095D01*
X109838095Y-92433333D01*
X109885714Y-91004761D02*
X110552380Y-91004761D01*
X109504761Y-91242857D02*
X110219047Y-91480952D01*
X110219047Y-90861904D01*
X109980952Y-90338095D02*
X109933333Y-90433333D01*
X109885714Y-90480952D01*
X109790476Y-90528571D01*
X109742857Y-90528571D01*
X109647619Y-90480952D01*
X109600000Y-90433333D01*
X109552380Y-90338095D01*
X109552380Y-90147619D01*
X109600000Y-90052380D01*
X109647619Y-90004761D01*
X109742857Y-89957142D01*
X109790476Y-89957142D01*
X109885714Y-90004761D01*
X109933333Y-90052380D01*
X109980952Y-90147619D01*
X109980952Y-90338095D01*
X110028571Y-90433333D01*
X110076190Y-90480952D01*
X110171428Y-90528571D01*
X110361904Y-90528571D01*
X110457142Y-90480952D01*
X110504761Y-90433333D01*
X110552380Y-90338095D01*
X110552380Y-90147619D01*
X110504761Y-90052380D01*
X110457142Y-90004761D01*
X110361904Y-89957142D01*
X110171428Y-89957142D01*
X110076190Y-90004761D01*
X110028571Y-90052380D01*
X109980952Y-90147619D01*
X109552380Y-89623809D02*
X110552380Y-89385714D01*
X109838095Y-89195238D01*
X110552380Y-89004761D01*
X109552380Y-88766666D01*
X114302380Y-92738095D02*
X113302380Y-92738095D01*
X113302380Y-92500000D01*
X113350000Y-92357142D01*
X113445238Y-92261904D01*
X113540476Y-92214285D01*
X113730952Y-92166666D01*
X113873809Y-92166666D01*
X114064285Y-92214285D01*
X114159523Y-92261904D01*
X114254761Y-92357142D01*
X114302380Y-92500000D01*
X114302380Y-92738095D01*
X113635714Y-91309523D02*
X114302380Y-91309523D01*
X113254761Y-91547619D02*
X113969047Y-91785714D01*
X113969047Y-91166666D01*
%TO.C,D3*%
X114352380Y-85614285D02*
X114352380Y-86185714D01*
X114352380Y-85900000D02*
X113352380Y-85900000D01*
X113495238Y-85995238D01*
X113590476Y-86090476D01*
X113638095Y-86185714D01*
X114352380Y-85185714D02*
X113352380Y-85185714D01*
X114352380Y-84614285D01*
X113352380Y-84614285D01*
X113685714Y-83709523D02*
X114352380Y-83709523D01*
X113304761Y-83947619D02*
X114019047Y-84185714D01*
X114019047Y-83566666D01*
X114352380Y-82661904D02*
X114352380Y-83233333D01*
X114352380Y-82947619D02*
X113352380Y-82947619D01*
X113495238Y-83042857D01*
X113590476Y-83138095D01*
X113638095Y-83233333D01*
X113685714Y-81804761D02*
X114352380Y-81804761D01*
X113304761Y-82042857D02*
X114019047Y-82280952D01*
X114019047Y-81661904D01*
X113780952Y-81138095D02*
X113733333Y-81233333D01*
X113685714Y-81280952D01*
X113590476Y-81328571D01*
X113542857Y-81328571D01*
X113447619Y-81280952D01*
X113400000Y-81233333D01*
X113352380Y-81138095D01*
X113352380Y-80947619D01*
X113400000Y-80852380D01*
X113447619Y-80804761D01*
X113542857Y-80757142D01*
X113590476Y-80757142D01*
X113685714Y-80804761D01*
X113733333Y-80852380D01*
X113780952Y-80947619D01*
X113780952Y-81138095D01*
X113828571Y-81233333D01*
X113876190Y-81280952D01*
X113971428Y-81328571D01*
X114161904Y-81328571D01*
X114257142Y-81280952D01*
X114304761Y-81233333D01*
X114352380Y-81138095D01*
X114352380Y-80947619D01*
X114304761Y-80852380D01*
X114257142Y-80804761D01*
X114161904Y-80757142D01*
X113971428Y-80757142D01*
X113876190Y-80804761D01*
X113828571Y-80852380D01*
X113780952Y-80947619D01*
X113352380Y-80423809D02*
X114352380Y-80185714D01*
X113638095Y-79995238D01*
X114352380Y-79804761D01*
X113352380Y-79566666D01*
X110602380Y-83738095D02*
X109602380Y-83738095D01*
X109602380Y-83500000D01*
X109650000Y-83357142D01*
X109745238Y-83261904D01*
X109840476Y-83214285D01*
X110030952Y-83166666D01*
X110173809Y-83166666D01*
X110364285Y-83214285D01*
X110459523Y-83261904D01*
X110554761Y-83357142D01*
X110602380Y-83500000D01*
X110602380Y-83738095D01*
X109602380Y-82833333D02*
X109602380Y-82214285D01*
X109983333Y-82547619D01*
X109983333Y-82404761D01*
X110030952Y-82309523D01*
X110078571Y-82261904D01*
X110173809Y-82214285D01*
X110411904Y-82214285D01*
X110507142Y-82261904D01*
X110554761Y-82309523D01*
X110602380Y-82404761D01*
X110602380Y-82690476D01*
X110554761Y-82785714D01*
X110507142Y-82833333D01*
%TO.C,D2*%
X110552380Y-66814285D02*
X110552380Y-67385714D01*
X110552380Y-67100000D02*
X109552380Y-67100000D01*
X109695238Y-67195238D01*
X109790476Y-67290476D01*
X109838095Y-67385714D01*
X110552380Y-66385714D02*
X109552380Y-66385714D01*
X110552380Y-65814285D01*
X109552380Y-65814285D01*
X109885714Y-64909523D02*
X110552380Y-64909523D01*
X109504761Y-65147619D02*
X110219047Y-65385714D01*
X110219047Y-64766666D01*
X110552380Y-63861904D02*
X110552380Y-64433333D01*
X110552380Y-64147619D02*
X109552380Y-64147619D01*
X109695238Y-64242857D01*
X109790476Y-64338095D01*
X109838095Y-64433333D01*
X109885714Y-63004761D02*
X110552380Y-63004761D01*
X109504761Y-63242857D02*
X110219047Y-63480952D01*
X110219047Y-62861904D01*
X109980952Y-62338095D02*
X109933333Y-62433333D01*
X109885714Y-62480952D01*
X109790476Y-62528571D01*
X109742857Y-62528571D01*
X109647619Y-62480952D01*
X109600000Y-62433333D01*
X109552380Y-62338095D01*
X109552380Y-62147619D01*
X109600000Y-62052380D01*
X109647619Y-62004761D01*
X109742857Y-61957142D01*
X109790476Y-61957142D01*
X109885714Y-62004761D01*
X109933333Y-62052380D01*
X109980952Y-62147619D01*
X109980952Y-62338095D01*
X110028571Y-62433333D01*
X110076190Y-62480952D01*
X110171428Y-62528571D01*
X110361904Y-62528571D01*
X110457142Y-62480952D01*
X110504761Y-62433333D01*
X110552380Y-62338095D01*
X110552380Y-62147619D01*
X110504761Y-62052380D01*
X110457142Y-62004761D01*
X110361904Y-61957142D01*
X110171428Y-61957142D01*
X110076190Y-62004761D01*
X110028571Y-62052380D01*
X109980952Y-62147619D01*
X109552380Y-61623809D02*
X110552380Y-61385714D01*
X109838095Y-61195238D01*
X110552380Y-61004761D01*
X109552380Y-60766666D01*
X114302380Y-64738095D02*
X113302380Y-64738095D01*
X113302380Y-64500000D01*
X113350000Y-64357142D01*
X113445238Y-64261904D01*
X113540476Y-64214285D01*
X113730952Y-64166666D01*
X113873809Y-64166666D01*
X114064285Y-64214285D01*
X114159523Y-64261904D01*
X114254761Y-64357142D01*
X114302380Y-64500000D01*
X114302380Y-64738095D01*
X113397619Y-63785714D02*
X113350000Y-63738095D01*
X113302380Y-63642857D01*
X113302380Y-63404761D01*
X113350000Y-63309523D01*
X113397619Y-63261904D01*
X113492857Y-63214285D01*
X113588095Y-63214285D01*
X113730952Y-63261904D01*
X114302380Y-63833333D01*
X114302380Y-63214285D01*
%TO.C,D1*%
X114352380Y-58614285D02*
X114352380Y-59185714D01*
X114352380Y-58900000D02*
X113352380Y-58900000D01*
X113495238Y-58995238D01*
X113590476Y-59090476D01*
X113638095Y-59185714D01*
X114352380Y-58185714D02*
X113352380Y-58185714D01*
X114352380Y-57614285D01*
X113352380Y-57614285D01*
X113685714Y-56709523D02*
X114352380Y-56709523D01*
X113304761Y-56947619D02*
X114019047Y-57185714D01*
X114019047Y-56566666D01*
X114352380Y-55661904D02*
X114352380Y-56233333D01*
X114352380Y-55947619D02*
X113352380Y-55947619D01*
X113495238Y-56042857D01*
X113590476Y-56138095D01*
X113638095Y-56233333D01*
X113685714Y-54804761D02*
X114352380Y-54804761D01*
X113304761Y-55042857D02*
X114019047Y-55280952D01*
X114019047Y-54661904D01*
X113780952Y-54138095D02*
X113733333Y-54233333D01*
X113685714Y-54280952D01*
X113590476Y-54328571D01*
X113542857Y-54328571D01*
X113447619Y-54280952D01*
X113400000Y-54233333D01*
X113352380Y-54138095D01*
X113352380Y-53947619D01*
X113400000Y-53852380D01*
X113447619Y-53804761D01*
X113542857Y-53757142D01*
X113590476Y-53757142D01*
X113685714Y-53804761D01*
X113733333Y-53852380D01*
X113780952Y-53947619D01*
X113780952Y-54138095D01*
X113828571Y-54233333D01*
X113876190Y-54280952D01*
X113971428Y-54328571D01*
X114161904Y-54328571D01*
X114257142Y-54280952D01*
X114304761Y-54233333D01*
X114352380Y-54138095D01*
X114352380Y-53947619D01*
X114304761Y-53852380D01*
X114257142Y-53804761D01*
X114161904Y-53757142D01*
X113971428Y-53757142D01*
X113876190Y-53804761D01*
X113828571Y-53852380D01*
X113780952Y-53947619D01*
X113352380Y-53423809D02*
X114352380Y-53185714D01*
X113638095Y-52995238D01*
X114352380Y-52804761D01*
X113352380Y-52566666D01*
X110602380Y-56738095D02*
X109602380Y-56738095D01*
X109602380Y-56500000D01*
X109650000Y-56357142D01*
X109745238Y-56261904D01*
X109840476Y-56214285D01*
X110030952Y-56166666D01*
X110173809Y-56166666D01*
X110364285Y-56214285D01*
X110459523Y-56261904D01*
X110554761Y-56357142D01*
X110602380Y-56500000D01*
X110602380Y-56738095D01*
X110602380Y-55214285D02*
X110602380Y-55785714D01*
X110602380Y-55500000D02*
X109602380Y-55500000D01*
X109745238Y-55595238D01*
X109840476Y-55690476D01*
X109888095Y-55785714D01*
%TO.C,C1*%
D14*
X140378666Y-67742571D02*
X140354857Y-67766380D01*
X140283428Y-67790190D01*
X140235809Y-67790190D01*
X140164380Y-67766380D01*
X140116761Y-67718761D01*
X140092952Y-67671142D01*
X140069142Y-67575904D01*
X140069142Y-67504476D01*
X140092952Y-67409238D01*
X140116761Y-67361619D01*
X140164380Y-67314000D01*
X140235809Y-67290190D01*
X140283428Y-67290190D01*
X140354857Y-67314000D01*
X140378666Y-67337809D01*
X140854857Y-67790190D02*
X140569142Y-67790190D01*
X140712000Y-67790190D02*
X140712000Y-67290190D01*
X140664380Y-67361619D01*
X140616761Y-67409238D01*
X140569142Y-67433047D01*
%TO.C,SW4*%
D13*
X114785714Y-40852380D02*
X114452380Y-40376190D01*
X114214285Y-40852380D02*
X114214285Y-39852380D01*
X114595238Y-39852380D01*
X114690476Y-39900000D01*
X114738095Y-39947619D01*
X114785714Y-40042857D01*
X114785714Y-40185714D01*
X114738095Y-40280952D01*
X114690476Y-40328571D01*
X114595238Y-40376190D01*
X114214285Y-40376190D01*
X115357142Y-40852380D02*
X115261904Y-40804761D01*
X115214285Y-40757142D01*
X115166666Y-40661904D01*
X115166666Y-40376190D01*
X115214285Y-40280952D01*
X115261904Y-40233333D01*
X115357142Y-40185714D01*
X115500000Y-40185714D01*
X115595238Y-40233333D01*
X115642857Y-40280952D01*
X115690476Y-40376190D01*
X115690476Y-40661904D01*
X115642857Y-40757142D01*
X115595238Y-40804761D01*
X115500000Y-40852380D01*
X115357142Y-40852380D01*
X115976190Y-40185714D02*
X116357142Y-40185714D01*
X116119047Y-39852380D02*
X116119047Y-40709523D01*
X116166666Y-40804761D01*
X116261904Y-40852380D01*
X116357142Y-40852380D01*
X117119047Y-40852380D02*
X117119047Y-40328571D01*
X117071428Y-40233333D01*
X116976190Y-40185714D01*
X116785714Y-40185714D01*
X116690476Y-40233333D01*
X117119047Y-40804761D02*
X117023809Y-40852380D01*
X116785714Y-40852380D01*
X116690476Y-40804761D01*
X116642857Y-40709523D01*
X116642857Y-40614285D01*
X116690476Y-40519047D01*
X116785714Y-40471428D01*
X117023809Y-40471428D01*
X117119047Y-40423809D01*
X117595238Y-40852380D02*
X117595238Y-40185714D01*
X117595238Y-40376190D02*
X117642857Y-40280952D01*
X117690476Y-40233333D01*
X117785714Y-40185714D01*
X117880952Y-40185714D01*
X118119047Y-40185714D02*
X118357142Y-40852380D01*
X118595238Y-40185714D02*
X118357142Y-40852380D01*
X118261904Y-41090476D01*
X118214285Y-41138095D01*
X118119047Y-41185714D01*
X118738095Y-40947619D02*
X119500000Y-40947619D01*
X119738095Y-40328571D02*
X120071428Y-40328571D01*
X120214285Y-40852380D02*
X119738095Y-40852380D01*
X119738095Y-39852380D01*
X120214285Y-39852380D01*
X120642857Y-40185714D02*
X120642857Y-40852380D01*
X120642857Y-40280952D02*
X120690476Y-40233333D01*
X120785714Y-40185714D01*
X120928571Y-40185714D01*
X121023809Y-40233333D01*
X121071428Y-40328571D01*
X121071428Y-40852380D01*
X121976190Y-40804761D02*
X121880952Y-40852380D01*
X121690476Y-40852380D01*
X121595238Y-40804761D01*
X121547619Y-40757142D01*
X121500000Y-40661904D01*
X121500000Y-40376190D01*
X121547619Y-40280952D01*
X121595238Y-40233333D01*
X121690476Y-40185714D01*
X121880952Y-40185714D01*
X121976190Y-40233333D01*
X122547619Y-40852380D02*
X122452380Y-40804761D01*
X122404761Y-40757142D01*
X122357142Y-40661904D01*
X122357142Y-40376190D01*
X122404761Y-40280952D01*
X122452380Y-40233333D01*
X122547619Y-40185714D01*
X122690476Y-40185714D01*
X122785714Y-40233333D01*
X122833333Y-40280952D01*
X122880952Y-40376190D01*
X122880952Y-40661904D01*
X122833333Y-40757142D01*
X122785714Y-40804761D01*
X122690476Y-40852380D01*
X122547619Y-40852380D01*
X123738095Y-40852380D02*
X123738095Y-39852380D01*
X123738095Y-40804761D02*
X123642857Y-40852380D01*
X123452380Y-40852380D01*
X123357142Y-40804761D01*
X123309523Y-40757142D01*
X123261904Y-40661904D01*
X123261904Y-40376190D01*
X123309523Y-40280952D01*
X123357142Y-40233333D01*
X123452380Y-40185714D01*
X123642857Y-40185714D01*
X123738095Y-40233333D01*
X124595238Y-40804761D02*
X124500000Y-40852380D01*
X124309523Y-40852380D01*
X124214285Y-40804761D01*
X124166666Y-40709523D01*
X124166666Y-40328571D01*
X124214285Y-40233333D01*
X124309523Y-40185714D01*
X124500000Y-40185714D01*
X124595238Y-40233333D01*
X124642857Y-40328571D01*
X124642857Y-40423809D01*
X124166666Y-40519047D01*
X125071428Y-40852380D02*
X125071428Y-40185714D01*
X125071428Y-40376190D02*
X125119047Y-40280952D01*
X125166666Y-40233333D01*
X125261904Y-40185714D01*
X125357142Y-40185714D01*
X125452380Y-40947619D02*
X126214285Y-40947619D01*
X126404761Y-40804761D02*
X126547619Y-40852380D01*
X126785714Y-40852380D01*
X126880952Y-40804761D01*
X126928571Y-40757142D01*
X126976190Y-40661904D01*
X126976190Y-40566666D01*
X126928571Y-40471428D01*
X126880952Y-40423809D01*
X126785714Y-40376190D01*
X126595238Y-40328571D01*
X126500000Y-40280952D01*
X126452380Y-40233333D01*
X126404761Y-40138095D01*
X126404761Y-40042857D01*
X126452380Y-39947619D01*
X126500000Y-39900000D01*
X126595238Y-39852380D01*
X126833333Y-39852380D01*
X126976190Y-39900000D01*
X127309523Y-40185714D02*
X127500000Y-40852380D01*
X127690476Y-40376190D01*
X127880952Y-40852380D01*
X128071428Y-40185714D01*
X128452380Y-40852380D02*
X128452380Y-40185714D01*
X128452380Y-39852380D02*
X128404761Y-39900000D01*
X128452380Y-39947619D01*
X128500000Y-39900000D01*
X128452380Y-39852380D01*
X128452380Y-39947619D01*
X128785714Y-40185714D02*
X129166666Y-40185714D01*
X128928571Y-39852380D02*
X128928571Y-40709523D01*
X128976190Y-40804761D01*
X129071428Y-40852380D01*
X129166666Y-40852380D01*
X129928571Y-40804761D02*
X129833333Y-40852380D01*
X129642857Y-40852380D01*
X129547619Y-40804761D01*
X129500000Y-40757142D01*
X129452380Y-40661904D01*
X129452380Y-40376190D01*
X129500000Y-40280952D01*
X129547619Y-40233333D01*
X129642857Y-40185714D01*
X129833333Y-40185714D01*
X129928571Y-40233333D01*
X130357142Y-40852380D02*
X130357142Y-39852380D01*
X130785714Y-40852380D02*
X130785714Y-40328571D01*
X130738095Y-40233333D01*
X130642857Y-40185714D01*
X130500000Y-40185714D01*
X130404761Y-40233333D01*
X130357142Y-40280952D01*
X124766666Y-36704761D02*
X124909523Y-36752380D01*
X125147619Y-36752380D01*
X125242857Y-36704761D01*
X125290476Y-36657142D01*
X125338095Y-36561904D01*
X125338095Y-36466666D01*
X125290476Y-36371428D01*
X125242857Y-36323809D01*
X125147619Y-36276190D01*
X124957142Y-36228571D01*
X124861904Y-36180952D01*
X124814285Y-36133333D01*
X124766666Y-36038095D01*
X124766666Y-35942857D01*
X124814285Y-35847619D01*
X124861904Y-35800000D01*
X124957142Y-35752380D01*
X125195238Y-35752380D01*
X125338095Y-35800000D01*
X125671428Y-35752380D02*
X125909523Y-36752380D01*
X126100000Y-36038095D01*
X126290476Y-36752380D01*
X126528571Y-35752380D01*
X127338095Y-36085714D02*
X127338095Y-36752380D01*
X127100000Y-35704761D02*
X126861904Y-36419047D01*
X127480952Y-36419047D01*
%TO.C,SW3*%
X124766666Y-91704761D02*
X124909523Y-91752380D01*
X125147619Y-91752380D01*
X125242857Y-91704761D01*
X125290476Y-91657142D01*
X125338095Y-91561904D01*
X125338095Y-91466666D01*
X125290476Y-91371428D01*
X125242857Y-91323809D01*
X125147619Y-91276190D01*
X124957142Y-91228571D01*
X124861904Y-91180952D01*
X124814285Y-91133333D01*
X124766666Y-91038095D01*
X124766666Y-90942857D01*
X124814285Y-90847619D01*
X124861904Y-90800000D01*
X124957142Y-90752380D01*
X125195238Y-90752380D01*
X125338095Y-90800000D01*
X125671428Y-90752380D02*
X125909523Y-91752380D01*
X126100000Y-91038095D01*
X126290476Y-91752380D01*
X126528571Y-90752380D01*
X126814285Y-90752380D02*
X127433333Y-90752380D01*
X127100000Y-91133333D01*
X127242857Y-91133333D01*
X127338095Y-91180952D01*
X127385714Y-91228571D01*
X127433333Y-91323809D01*
X127433333Y-91561904D01*
X127385714Y-91657142D01*
X127338095Y-91704761D01*
X127242857Y-91752380D01*
X126957142Y-91752380D01*
X126861904Y-91704761D01*
X126814285Y-91657142D01*
%TO.C,SW2*%
X124766666Y-64204761D02*
X124909523Y-64252380D01*
X125147619Y-64252380D01*
X125242857Y-64204761D01*
X125290476Y-64157142D01*
X125338095Y-64061904D01*
X125338095Y-63966666D01*
X125290476Y-63871428D01*
X125242857Y-63823809D01*
X125147619Y-63776190D01*
X124957142Y-63728571D01*
X124861904Y-63680952D01*
X124814285Y-63633333D01*
X124766666Y-63538095D01*
X124766666Y-63442857D01*
X124814285Y-63347619D01*
X124861904Y-63300000D01*
X124957142Y-63252380D01*
X125195238Y-63252380D01*
X125338095Y-63300000D01*
X125671428Y-63252380D02*
X125909523Y-64252380D01*
X126100000Y-63538095D01*
X126290476Y-64252380D01*
X126528571Y-63252380D01*
X126861904Y-63347619D02*
X126909523Y-63300000D01*
X127004761Y-63252380D01*
X127242857Y-63252380D01*
X127338095Y-63300000D01*
X127385714Y-63347619D01*
X127433333Y-63442857D01*
X127433333Y-63538095D01*
X127385714Y-63680952D01*
X126814285Y-64252380D01*
X127433333Y-64252380D01*
%TO.C,H2*%
X148768571Y-125132380D02*
X148768571Y-124132380D01*
X149101904Y-124846666D01*
X149435238Y-124132380D01*
X149435238Y-125132380D01*
X150054285Y-125132380D02*
X149959047Y-125084761D01*
X149911428Y-125037142D01*
X149863809Y-124941904D01*
X149863809Y-124656190D01*
X149911428Y-124560952D01*
X149959047Y-124513333D01*
X150054285Y-124465714D01*
X150197142Y-124465714D01*
X150292380Y-124513333D01*
X150340000Y-124560952D01*
X150387619Y-124656190D01*
X150387619Y-124941904D01*
X150340000Y-125037142D01*
X150292380Y-125084761D01*
X150197142Y-125132380D01*
X150054285Y-125132380D01*
X151244761Y-124465714D02*
X151244761Y-125132380D01*
X150816190Y-124465714D02*
X150816190Y-124989523D01*
X150863809Y-125084761D01*
X150959047Y-125132380D01*
X151101904Y-125132380D01*
X151197142Y-125084761D01*
X151244761Y-125037142D01*
X151720952Y-124465714D02*
X151720952Y-125132380D01*
X151720952Y-124560952D02*
X151768571Y-124513333D01*
X151863809Y-124465714D01*
X152006666Y-124465714D01*
X152101904Y-124513333D01*
X152149523Y-124608571D01*
X152149523Y-125132380D01*
X152482857Y-124465714D02*
X152863809Y-124465714D01*
X152625714Y-124132380D02*
X152625714Y-124989523D01*
X152673333Y-125084761D01*
X152768571Y-125132380D01*
X152863809Y-125132380D01*
X153197142Y-125132380D02*
X153197142Y-124465714D01*
X153197142Y-124132380D02*
X153149523Y-124180000D01*
X153197142Y-124227619D01*
X153244761Y-124180000D01*
X153197142Y-124132380D01*
X153197142Y-124227619D01*
X153673333Y-124465714D02*
X153673333Y-125132380D01*
X153673333Y-124560952D02*
X153720952Y-124513333D01*
X153816190Y-124465714D01*
X153959047Y-124465714D01*
X154054285Y-124513333D01*
X154101904Y-124608571D01*
X154101904Y-125132380D01*
X155006666Y-124465714D02*
X155006666Y-125275238D01*
X154959047Y-125370476D01*
X154911428Y-125418095D01*
X154816190Y-125465714D01*
X154673333Y-125465714D01*
X154578095Y-125418095D01*
X155006666Y-125084761D02*
X154911428Y-125132380D01*
X154720952Y-125132380D01*
X154625714Y-125084761D01*
X154578095Y-125037142D01*
X154530476Y-124941904D01*
X154530476Y-124656190D01*
X154578095Y-124560952D01*
X154625714Y-124513333D01*
X154720952Y-124465714D01*
X154911428Y-124465714D01*
X155006666Y-124513333D01*
X155482857Y-125132380D02*
X155482857Y-124132380D01*
X155482857Y-124608571D02*
X156054285Y-124608571D01*
X156054285Y-125132380D02*
X156054285Y-124132380D01*
X156673333Y-125132380D02*
X156578095Y-125084761D01*
X156530476Y-125037142D01*
X156482857Y-124941904D01*
X156482857Y-124656190D01*
X156530476Y-124560952D01*
X156578095Y-124513333D01*
X156673333Y-124465714D01*
X156816190Y-124465714D01*
X156911428Y-124513333D01*
X156959047Y-124560952D01*
X157006666Y-124656190D01*
X157006666Y-124941904D01*
X156959047Y-125037142D01*
X156911428Y-125084761D01*
X156816190Y-125132380D01*
X156673333Y-125132380D01*
X157578095Y-125132380D02*
X157482857Y-125084761D01*
X157435238Y-124989523D01*
X157435238Y-124132380D01*
X158340000Y-125084761D02*
X158244761Y-125132380D01*
X158054285Y-125132380D01*
X157959047Y-125084761D01*
X157911428Y-124989523D01*
X157911428Y-124608571D01*
X157959047Y-124513333D01*
X158054285Y-124465714D01*
X158244761Y-124465714D01*
X158340000Y-124513333D01*
X158387619Y-124608571D01*
X158387619Y-124703809D01*
X157911428Y-124799047D01*
X158578095Y-125227619D02*
X159340000Y-125227619D01*
X159578095Y-125132380D02*
X159578095Y-124132380D01*
X159959047Y-124132380D01*
X160054285Y-124180000D01*
X160101904Y-124227619D01*
X160149523Y-124322857D01*
X160149523Y-124465714D01*
X160101904Y-124560952D01*
X160054285Y-124608571D01*
X159959047Y-124656190D01*
X159578095Y-124656190D01*
X161006666Y-125132380D02*
X161006666Y-124608571D01*
X160959047Y-124513333D01*
X160863809Y-124465714D01*
X160673333Y-124465714D01*
X160578095Y-124513333D01*
X161006666Y-125084761D02*
X160911428Y-125132380D01*
X160673333Y-125132380D01*
X160578095Y-125084761D01*
X160530476Y-124989523D01*
X160530476Y-124894285D01*
X160578095Y-124799047D01*
X160673333Y-124751428D01*
X160911428Y-124751428D01*
X161006666Y-124703809D01*
X161911428Y-125132380D02*
X161911428Y-124132380D01*
X161911428Y-125084761D02*
X161816190Y-125132380D01*
X161625714Y-125132380D01*
X161530476Y-125084761D01*
X161482857Y-125037142D01*
X161435238Y-124941904D01*
X161435238Y-124656190D01*
X161482857Y-124560952D01*
X161530476Y-124513333D01*
X161625714Y-124465714D01*
X161816190Y-124465714D01*
X161911428Y-124513333D01*
X154878095Y-119832380D02*
X154878095Y-118832380D01*
X154878095Y-119308571D02*
X155449523Y-119308571D01*
X155449523Y-119832380D02*
X155449523Y-118832380D01*
X155878095Y-118927619D02*
X155925714Y-118880000D01*
X156020952Y-118832380D01*
X156259047Y-118832380D01*
X156354285Y-118880000D01*
X156401904Y-118927619D01*
X156449523Y-119022857D01*
X156449523Y-119118095D01*
X156401904Y-119260952D01*
X155830476Y-119832380D01*
X156449523Y-119832380D01*
%TO.C,H1*%
X148768571Y-34372380D02*
X148768571Y-33372380D01*
X149101904Y-34086666D01*
X149435238Y-33372380D01*
X149435238Y-34372380D01*
X150054285Y-34372380D02*
X149959047Y-34324761D01*
X149911428Y-34277142D01*
X149863809Y-34181904D01*
X149863809Y-33896190D01*
X149911428Y-33800952D01*
X149959047Y-33753333D01*
X150054285Y-33705714D01*
X150197142Y-33705714D01*
X150292380Y-33753333D01*
X150340000Y-33800952D01*
X150387619Y-33896190D01*
X150387619Y-34181904D01*
X150340000Y-34277142D01*
X150292380Y-34324761D01*
X150197142Y-34372380D01*
X150054285Y-34372380D01*
X151244761Y-33705714D02*
X151244761Y-34372380D01*
X150816190Y-33705714D02*
X150816190Y-34229523D01*
X150863809Y-34324761D01*
X150959047Y-34372380D01*
X151101904Y-34372380D01*
X151197142Y-34324761D01*
X151244761Y-34277142D01*
X151720952Y-33705714D02*
X151720952Y-34372380D01*
X151720952Y-33800952D02*
X151768571Y-33753333D01*
X151863809Y-33705714D01*
X152006666Y-33705714D01*
X152101904Y-33753333D01*
X152149523Y-33848571D01*
X152149523Y-34372380D01*
X152482857Y-33705714D02*
X152863809Y-33705714D01*
X152625714Y-33372380D02*
X152625714Y-34229523D01*
X152673333Y-34324761D01*
X152768571Y-34372380D01*
X152863809Y-34372380D01*
X153197142Y-34372380D02*
X153197142Y-33705714D01*
X153197142Y-33372380D02*
X153149523Y-33420000D01*
X153197142Y-33467619D01*
X153244761Y-33420000D01*
X153197142Y-33372380D01*
X153197142Y-33467619D01*
X153673333Y-33705714D02*
X153673333Y-34372380D01*
X153673333Y-33800952D02*
X153720952Y-33753333D01*
X153816190Y-33705714D01*
X153959047Y-33705714D01*
X154054285Y-33753333D01*
X154101904Y-33848571D01*
X154101904Y-34372380D01*
X155006666Y-33705714D02*
X155006666Y-34515238D01*
X154959047Y-34610476D01*
X154911428Y-34658095D01*
X154816190Y-34705714D01*
X154673333Y-34705714D01*
X154578095Y-34658095D01*
X155006666Y-34324761D02*
X154911428Y-34372380D01*
X154720952Y-34372380D01*
X154625714Y-34324761D01*
X154578095Y-34277142D01*
X154530476Y-34181904D01*
X154530476Y-33896190D01*
X154578095Y-33800952D01*
X154625714Y-33753333D01*
X154720952Y-33705714D01*
X154911428Y-33705714D01*
X155006666Y-33753333D01*
X155482857Y-34372380D02*
X155482857Y-33372380D01*
X155482857Y-33848571D02*
X156054285Y-33848571D01*
X156054285Y-34372380D02*
X156054285Y-33372380D01*
X156673333Y-34372380D02*
X156578095Y-34324761D01*
X156530476Y-34277142D01*
X156482857Y-34181904D01*
X156482857Y-33896190D01*
X156530476Y-33800952D01*
X156578095Y-33753333D01*
X156673333Y-33705714D01*
X156816190Y-33705714D01*
X156911428Y-33753333D01*
X156959047Y-33800952D01*
X157006666Y-33896190D01*
X157006666Y-34181904D01*
X156959047Y-34277142D01*
X156911428Y-34324761D01*
X156816190Y-34372380D01*
X156673333Y-34372380D01*
X157578095Y-34372380D02*
X157482857Y-34324761D01*
X157435238Y-34229523D01*
X157435238Y-33372380D01*
X158340000Y-34324761D02*
X158244761Y-34372380D01*
X158054285Y-34372380D01*
X157959047Y-34324761D01*
X157911428Y-34229523D01*
X157911428Y-33848571D01*
X157959047Y-33753333D01*
X158054285Y-33705714D01*
X158244761Y-33705714D01*
X158340000Y-33753333D01*
X158387619Y-33848571D01*
X158387619Y-33943809D01*
X157911428Y-34039047D01*
X158578095Y-34467619D02*
X159340000Y-34467619D01*
X159578095Y-34372380D02*
X159578095Y-33372380D01*
X159959047Y-33372380D01*
X160054285Y-33420000D01*
X160101904Y-33467619D01*
X160149523Y-33562857D01*
X160149523Y-33705714D01*
X160101904Y-33800952D01*
X160054285Y-33848571D01*
X159959047Y-33896190D01*
X159578095Y-33896190D01*
X161006666Y-34372380D02*
X161006666Y-33848571D01*
X160959047Y-33753333D01*
X160863809Y-33705714D01*
X160673333Y-33705714D01*
X160578095Y-33753333D01*
X161006666Y-34324761D02*
X160911428Y-34372380D01*
X160673333Y-34372380D01*
X160578095Y-34324761D01*
X160530476Y-34229523D01*
X160530476Y-34134285D01*
X160578095Y-34039047D01*
X160673333Y-33991428D01*
X160911428Y-33991428D01*
X161006666Y-33943809D01*
X161911428Y-34372380D02*
X161911428Y-33372380D01*
X161911428Y-34324761D02*
X161816190Y-34372380D01*
X161625714Y-34372380D01*
X161530476Y-34324761D01*
X161482857Y-34277142D01*
X161435238Y-34181904D01*
X161435238Y-33896190D01*
X161482857Y-33800952D01*
X161530476Y-33753333D01*
X161625714Y-33705714D01*
X161816190Y-33705714D01*
X161911428Y-33753333D01*
X154878095Y-29072380D02*
X154878095Y-28072380D01*
X154878095Y-28548571D02*
X155449523Y-28548571D01*
X155449523Y-29072380D02*
X155449523Y-28072380D01*
X156449523Y-29072380D02*
X155878095Y-29072380D01*
X156163809Y-29072380D02*
X156163809Y-28072380D01*
X156068571Y-28215238D01*
X155973333Y-28310476D01*
X155878095Y-28358095D01*
%TO.C,SW1*%
X124766666Y-119204761D02*
X124909523Y-119252380D01*
X125147619Y-119252380D01*
X125242857Y-119204761D01*
X125290476Y-119157142D01*
X125338095Y-119061904D01*
X125338095Y-118966666D01*
X125290476Y-118871428D01*
X125242857Y-118823809D01*
X125147619Y-118776190D01*
X124957142Y-118728571D01*
X124861904Y-118680952D01*
X124814285Y-118633333D01*
X124766666Y-118538095D01*
X124766666Y-118442857D01*
X124814285Y-118347619D01*
X124861904Y-118300000D01*
X124957142Y-118252380D01*
X125195238Y-118252380D01*
X125338095Y-118300000D01*
X125671428Y-118252380D02*
X125909523Y-119252380D01*
X126100000Y-118538095D01*
X126290476Y-119252380D01*
X126528571Y-118252380D01*
X127433333Y-119252380D02*
X126861904Y-119252380D01*
X127147619Y-119252380D02*
X127147619Y-118252380D01*
X127052380Y-118395238D01*
X126957142Y-118490476D01*
X126861904Y-118538095D01*
%TO.C,R1*%
D14*
X148216666Y-95726190D02*
X148050000Y-95488095D01*
X147930952Y-95726190D02*
X147930952Y-95226190D01*
X148121428Y-95226190D01*
X148169047Y-95250000D01*
X148192857Y-95273809D01*
X148216666Y-95321428D01*
X148216666Y-95392857D01*
X148192857Y-95440476D01*
X148169047Y-95464285D01*
X148121428Y-95488095D01*
X147930952Y-95488095D01*
X148692857Y-95726190D02*
X148407142Y-95726190D01*
X148550000Y-95726190D02*
X148550000Y-95226190D01*
X148502380Y-95297619D01*
X148454761Y-95345238D01*
X148407142Y-95369047D01*
%TO.C,P7*%
D15*
X154291028Y-58893132D02*
X154338737Y-58750006D01*
X154338737Y-58511462D01*
X154291028Y-58416045D01*
X154243320Y-58368336D01*
X154147902Y-58320628D01*
X154052485Y-58320628D01*
X153957068Y-58368336D01*
X153909359Y-58416045D01*
X153861650Y-58511462D01*
X153813942Y-58702297D01*
X153766233Y-58797714D01*
X153718524Y-58845423D01*
X153623107Y-58893132D01*
X153527690Y-58893132D01*
X153432272Y-58845423D01*
X153384564Y-58797714D01*
X153336855Y-58702297D01*
X153336855Y-58463754D01*
X153384564Y-58320628D01*
X153336855Y-58034376D02*
X153336855Y-57461872D01*
X154338737Y-57748124D02*
X153336855Y-57748124D01*
X153957068Y-57127911D02*
X153957068Y-56364572D01*
X153336855Y-56030612D02*
X153336855Y-55458108D01*
X154338737Y-55744360D02*
X153336855Y-55744360D01*
X153813942Y-54790186D02*
X153813942Y-55124147D01*
X154338737Y-55124147D02*
X153336855Y-55124147D01*
X153336855Y-54647060D01*
X153957068Y-54265391D02*
X153957068Y-53502052D01*
X153336855Y-52834131D02*
X153336855Y-52738714D01*
X153384564Y-52643296D01*
X153432272Y-52595588D01*
X153527690Y-52547879D01*
X153718524Y-52500170D01*
X153957068Y-52500170D01*
X154147902Y-52547879D01*
X154243320Y-52595588D01*
X154291028Y-52643296D01*
X154338737Y-52738714D01*
X154338737Y-52834131D01*
X154291028Y-52929548D01*
X154243320Y-52977257D01*
X154147902Y-53024966D01*
X153957068Y-53072674D01*
X153718524Y-53072674D01*
X153527690Y-53024966D01*
X153432272Y-52977257D01*
X153384564Y-52929548D01*
X153336855Y-52834131D01*
X153336855Y-51879958D02*
X153336855Y-51784540D01*
X153384564Y-51689123D01*
X153432272Y-51641414D01*
X153527690Y-51593706D01*
X153718524Y-51545997D01*
X153957068Y-51545997D01*
X154147902Y-51593706D01*
X154243320Y-51641414D01*
X154291028Y-51689123D01*
X154338737Y-51784540D01*
X154338737Y-51879958D01*
X154291028Y-51975375D01*
X154243320Y-52023084D01*
X154147902Y-52070792D01*
X153957068Y-52118501D01*
X153718524Y-52118501D01*
X153527690Y-52070792D01*
X153432272Y-52023084D01*
X153384564Y-51975375D01*
X153336855Y-51879958D01*
X153336855Y-51212036D02*
X153336855Y-50591824D01*
X153718524Y-50925784D01*
X153718524Y-50782658D01*
X153766233Y-50687241D01*
X153813942Y-50639532D01*
X153909359Y-50591824D01*
X154147902Y-50591824D01*
X154243320Y-50639532D01*
X154291028Y-50687241D01*
X154338737Y-50782658D01*
X154338737Y-51068910D01*
X154291028Y-51164328D01*
X154243320Y-51212036D01*
X154052485Y-50210154D02*
X154052485Y-49733068D01*
X154338737Y-50305572D02*
X153336855Y-49971611D01*
X154338737Y-49637650D01*
%TO.C,J2*%
D13*
X148807142Y-49285714D02*
X148854761Y-49333333D01*
X148902380Y-49476190D01*
X148902380Y-49571428D01*
X148854761Y-49714285D01*
X148759523Y-49809523D01*
X148664285Y-49857142D01*
X148473809Y-49904761D01*
X148330952Y-49904761D01*
X148140476Y-49857142D01*
X148045238Y-49809523D01*
X147950000Y-49714285D01*
X147902380Y-49571428D01*
X147902380Y-49476190D01*
X147950000Y-49333333D01*
X147997619Y-49285714D01*
X148902380Y-48714285D02*
X148854761Y-48809523D01*
X148807142Y-48857142D01*
X148711904Y-48904761D01*
X148426190Y-48904761D01*
X148330952Y-48857142D01*
X148283333Y-48809523D01*
X148235714Y-48714285D01*
X148235714Y-48571428D01*
X148283333Y-48476190D01*
X148330952Y-48428571D01*
X148426190Y-48380952D01*
X148711904Y-48380952D01*
X148807142Y-48428571D01*
X148854761Y-48476190D01*
X148902380Y-48571428D01*
X148902380Y-48714285D01*
X148235714Y-47952380D02*
X148902380Y-47952380D01*
X148330952Y-47952380D02*
X148283333Y-47904761D01*
X148235714Y-47809523D01*
X148235714Y-47666666D01*
X148283333Y-47571428D01*
X148378571Y-47523809D01*
X148902380Y-47523809D01*
X148235714Y-47047619D02*
X148902380Y-47047619D01*
X148330952Y-47047619D02*
X148283333Y-47000000D01*
X148235714Y-46904761D01*
X148235714Y-46761904D01*
X148283333Y-46666666D01*
X148378571Y-46619047D01*
X148902380Y-46619047D01*
X148997619Y-46380952D02*
X148997619Y-45619047D01*
X147902380Y-45190476D02*
X147902380Y-45095238D01*
X147950000Y-45000000D01*
X147997619Y-44952380D01*
X148092857Y-44904761D01*
X148283333Y-44857142D01*
X148521428Y-44857142D01*
X148711904Y-44904761D01*
X148807142Y-44952380D01*
X148854761Y-45000000D01*
X148902380Y-45095238D01*
X148902380Y-45190476D01*
X148854761Y-45285714D01*
X148807142Y-45333333D01*
X148711904Y-45380952D01*
X148521428Y-45428571D01*
X148283333Y-45428571D01*
X148092857Y-45380952D01*
X147997619Y-45333333D01*
X147950000Y-45285714D01*
X147902380Y-45190476D01*
X148902380Y-43904761D02*
X148902380Y-44476190D01*
X148902380Y-44190476D02*
X147902380Y-44190476D01*
X148045238Y-44285714D01*
X148140476Y-44380952D01*
X148188095Y-44476190D01*
X148902380Y-43571428D02*
X148235714Y-43047619D01*
X148235714Y-43571428D02*
X148902380Y-43047619D01*
X147902380Y-42476190D02*
X147902380Y-42380952D01*
X147950000Y-42285714D01*
X147997619Y-42238095D01*
X148092857Y-42190476D01*
X148283333Y-42142857D01*
X148521428Y-42142857D01*
X148711904Y-42190476D01*
X148807142Y-42238095D01*
X148854761Y-42285714D01*
X148902380Y-42380952D01*
X148902380Y-42476190D01*
X148854761Y-42571428D01*
X148807142Y-42619047D01*
X148711904Y-42666666D01*
X148521428Y-42714285D01*
X148283333Y-42714285D01*
X148092857Y-42666666D01*
X147997619Y-42619047D01*
X147950000Y-42571428D01*
X147902380Y-42476190D01*
X148235714Y-41285714D02*
X148902380Y-41285714D01*
X147854761Y-41523809D02*
X148569047Y-41761904D01*
X148569047Y-41142857D01*
X148997619Y-41000000D02*
X148997619Y-40238095D01*
X148378571Y-39666666D02*
X148378571Y-40000000D01*
X148902380Y-40000000D02*
X147902380Y-40000000D01*
X147902380Y-39523809D01*
X148854761Y-38761904D02*
X148902380Y-38857142D01*
X148902380Y-39047619D01*
X148854761Y-39142857D01*
X148759523Y-39190476D01*
X148378571Y-39190476D01*
X148283333Y-39142857D01*
X148235714Y-39047619D01*
X148235714Y-38857142D01*
X148283333Y-38761904D01*
X148378571Y-38714285D01*
X148473809Y-38714285D01*
X148569047Y-39190476D01*
X148902380Y-38285714D02*
X148235714Y-38285714D01*
X148330952Y-38285714D02*
X148283333Y-38238095D01*
X148235714Y-38142857D01*
X148235714Y-38000000D01*
X148283333Y-37904761D01*
X148378571Y-37857142D01*
X148902380Y-37857142D01*
X148378571Y-37857142D02*
X148283333Y-37809523D01*
X148235714Y-37714285D01*
X148235714Y-37571428D01*
X148283333Y-37476190D01*
X148378571Y-37428571D01*
X148902380Y-37428571D01*
X148902380Y-36523809D02*
X148378571Y-36523809D01*
X148283333Y-36571428D01*
X148235714Y-36666666D01*
X148235714Y-36857142D01*
X148283333Y-36952380D01*
X148854761Y-36523809D02*
X148902380Y-36619047D01*
X148902380Y-36857142D01*
X148854761Y-36952380D01*
X148759523Y-37000000D01*
X148664285Y-37000000D01*
X148569047Y-36952380D01*
X148521428Y-36857142D01*
X148521428Y-36619047D01*
X148473809Y-36523809D01*
X148902380Y-35904761D02*
X148854761Y-36000000D01*
X148759523Y-36047619D01*
X147902380Y-36047619D01*
X148854761Y-35142857D02*
X148902380Y-35238095D01*
X148902380Y-35428571D01*
X148854761Y-35523809D01*
X148759523Y-35571428D01*
X148378571Y-35571428D01*
X148283333Y-35523809D01*
X148235714Y-35428571D01*
X148235714Y-35238095D01*
X148283333Y-35142857D01*
X148378571Y-35095238D01*
X148473809Y-35095238D01*
X148569047Y-35571428D01*
X141976666Y-41952380D02*
X141976666Y-42666666D01*
X141929047Y-42809523D01*
X141833809Y-42904761D01*
X141690952Y-42952380D01*
X141595714Y-42952380D01*
X142405238Y-42047619D02*
X142452857Y-42000000D01*
X142548095Y-41952380D01*
X142786190Y-41952380D01*
X142881428Y-42000000D01*
X142929047Y-42047619D01*
X142976666Y-42142857D01*
X142976666Y-42238095D01*
X142929047Y-42380952D01*
X142357619Y-42952380D01*
X142976666Y-42952380D01*
%TO.C,J1*%
X133123142Y-36682857D02*
X133170761Y-36730476D01*
X133218380Y-36873333D01*
X133218380Y-36968571D01*
X133170761Y-37111428D01*
X133075523Y-37206666D01*
X132980285Y-37254285D01*
X132789809Y-37301904D01*
X132646952Y-37301904D01*
X132456476Y-37254285D01*
X132361238Y-37206666D01*
X132266000Y-37111428D01*
X132218380Y-36968571D01*
X132218380Y-36873333D01*
X132266000Y-36730476D01*
X132313619Y-36682857D01*
X133218380Y-36111428D02*
X133170761Y-36206666D01*
X133123142Y-36254285D01*
X133027904Y-36301904D01*
X132742190Y-36301904D01*
X132646952Y-36254285D01*
X132599333Y-36206666D01*
X132551714Y-36111428D01*
X132551714Y-35968571D01*
X132599333Y-35873333D01*
X132646952Y-35825714D01*
X132742190Y-35778095D01*
X133027904Y-35778095D01*
X133123142Y-35825714D01*
X133170761Y-35873333D01*
X133218380Y-35968571D01*
X133218380Y-36111428D01*
X132551714Y-35349523D02*
X133218380Y-35349523D01*
X132646952Y-35349523D02*
X132599333Y-35301904D01*
X132551714Y-35206666D01*
X132551714Y-35063809D01*
X132599333Y-34968571D01*
X132694571Y-34920952D01*
X133218380Y-34920952D01*
X132551714Y-34444761D02*
X133218380Y-34444761D01*
X132646952Y-34444761D02*
X132599333Y-34397142D01*
X132551714Y-34301904D01*
X132551714Y-34159047D01*
X132599333Y-34063809D01*
X132694571Y-34016190D01*
X133218380Y-34016190D01*
X133313619Y-33778095D02*
X133313619Y-33016190D01*
X132218380Y-32587619D02*
X132218380Y-32492380D01*
X132266000Y-32397142D01*
X132313619Y-32349523D01*
X132408857Y-32301904D01*
X132599333Y-32254285D01*
X132837428Y-32254285D01*
X133027904Y-32301904D01*
X133123142Y-32349523D01*
X133170761Y-32397142D01*
X133218380Y-32492380D01*
X133218380Y-32587619D01*
X133170761Y-32682857D01*
X133123142Y-32730476D01*
X133027904Y-32778095D01*
X132837428Y-32825714D01*
X132599333Y-32825714D01*
X132408857Y-32778095D01*
X132313619Y-32730476D01*
X132266000Y-32682857D01*
X132218380Y-32587619D01*
X132313619Y-31873333D02*
X132266000Y-31825714D01*
X132218380Y-31730476D01*
X132218380Y-31492380D01*
X132266000Y-31397142D01*
X132313619Y-31349523D01*
X132408857Y-31301904D01*
X132504095Y-31301904D01*
X132646952Y-31349523D01*
X133218380Y-31920952D01*
X133218380Y-31301904D01*
X133218380Y-30968571D02*
X132551714Y-30444761D01*
X132551714Y-30968571D02*
X133218380Y-30444761D01*
X132218380Y-29873333D02*
X132218380Y-29778095D01*
X132266000Y-29682857D01*
X132313619Y-29635238D01*
X132408857Y-29587619D01*
X132599333Y-29540000D01*
X132837428Y-29540000D01*
X133027904Y-29587619D01*
X133123142Y-29635238D01*
X133170761Y-29682857D01*
X133218380Y-29778095D01*
X133218380Y-29873333D01*
X133170761Y-29968571D01*
X133123142Y-30016190D01*
X133027904Y-30063809D01*
X132837428Y-30111428D01*
X132599333Y-30111428D01*
X132408857Y-30063809D01*
X132313619Y-30016190D01*
X132266000Y-29968571D01*
X132218380Y-29873333D01*
X132218380Y-29206666D02*
X132218380Y-28587619D01*
X132599333Y-28920952D01*
X132599333Y-28778095D01*
X132646952Y-28682857D01*
X132694571Y-28635238D01*
X132789809Y-28587619D01*
X133027904Y-28587619D01*
X133123142Y-28635238D01*
X133170761Y-28682857D01*
X133218380Y-28778095D01*
X133218380Y-29063809D01*
X133170761Y-29159047D01*
X133123142Y-29206666D01*
X133313619Y-28397142D02*
X133313619Y-27635238D01*
X132218380Y-27206666D02*
X132218380Y-27016190D01*
X132266000Y-26920952D01*
X132361238Y-26825714D01*
X132551714Y-26778095D01*
X132885047Y-26778095D01*
X133075523Y-26825714D01*
X133170761Y-26920952D01*
X133218380Y-27016190D01*
X133218380Y-27206666D01*
X133170761Y-27301904D01*
X133075523Y-27397142D01*
X132885047Y-27444761D01*
X132551714Y-27444761D01*
X132361238Y-27397142D01*
X132266000Y-27301904D01*
X132218380Y-27206666D01*
X133218380Y-25920952D02*
X132218380Y-25920952D01*
X133170761Y-25920952D02*
X133218380Y-26016190D01*
X133218380Y-26206666D01*
X133170761Y-26301904D01*
X133123142Y-26349523D01*
X133027904Y-26397142D01*
X132742190Y-26397142D01*
X132646952Y-26349523D01*
X132599333Y-26301904D01*
X132551714Y-26206666D01*
X132551714Y-26016190D01*
X132599333Y-25920952D01*
X133218380Y-25016190D02*
X132218380Y-25016190D01*
X133170761Y-25016190D02*
X133218380Y-25111428D01*
X133218380Y-25301904D01*
X133170761Y-25397142D01*
X133123142Y-25444761D01*
X133027904Y-25492380D01*
X132742190Y-25492380D01*
X132646952Y-25444761D01*
X132599333Y-25397142D01*
X132551714Y-25301904D01*
X132551714Y-25111428D01*
X132599333Y-25016190D01*
X133313619Y-24778095D02*
X133313619Y-24016190D01*
X132694571Y-23778095D02*
X132694571Y-23444761D01*
X133218380Y-23301904D02*
X133218380Y-23778095D01*
X132218380Y-23778095D01*
X132218380Y-23301904D01*
X132551714Y-22968571D02*
X133218380Y-22730476D01*
X132551714Y-22492380D01*
X133170761Y-21730476D02*
X133218380Y-21825714D01*
X133218380Y-22016190D01*
X133170761Y-22111428D01*
X133075523Y-22159047D01*
X132694571Y-22159047D01*
X132599333Y-22111428D01*
X132551714Y-22016190D01*
X132551714Y-21825714D01*
X132599333Y-21730476D01*
X132694571Y-21682857D01*
X132789809Y-21682857D01*
X132885047Y-22159047D01*
X132551714Y-21254285D02*
X133218380Y-21254285D01*
X132646952Y-21254285D02*
X132599333Y-21206666D01*
X132551714Y-21111428D01*
X132551714Y-20968571D01*
X132599333Y-20873333D01*
X132694571Y-20825714D01*
X133218380Y-20825714D01*
X141362380Y-29373333D02*
X142076666Y-29373333D01*
X142219523Y-29420952D01*
X142314761Y-29516190D01*
X142362380Y-29659047D01*
X142362380Y-29754285D01*
X142362380Y-28373333D02*
X142362380Y-28944761D01*
X142362380Y-28659047D02*
X141362380Y-28659047D01*
X141505238Y-28754285D01*
X141600476Y-28849523D01*
X141648095Y-28944761D01*
%TO.C,P1*%
X140152380Y-95916476D02*
X139152380Y-95916476D01*
X139152380Y-95678380D01*
X139200000Y-95535523D01*
X139295238Y-95440285D01*
X139390476Y-95392666D01*
X139580952Y-95345047D01*
X139723809Y-95345047D01*
X139914285Y-95392666D01*
X140009523Y-95440285D01*
X140104761Y-95535523D01*
X140152380Y-95678380D01*
X140152380Y-95916476D01*
X140152380Y-94916476D02*
X139485714Y-94916476D01*
X139152380Y-94916476D02*
X139200000Y-94964095D01*
X139247619Y-94916476D01*
X139200000Y-94868857D01*
X139152380Y-94916476D01*
X139247619Y-94916476D01*
X139485714Y-94011714D02*
X140295238Y-94011714D01*
X140390476Y-94059333D01*
X140438095Y-94106952D01*
X140485714Y-94202190D01*
X140485714Y-94345047D01*
X140438095Y-94440285D01*
X140104761Y-94011714D02*
X140152380Y-94106952D01*
X140152380Y-94297428D01*
X140104761Y-94392666D01*
X140057142Y-94440285D01*
X139961904Y-94487904D01*
X139676190Y-94487904D01*
X139580952Y-94440285D01*
X139533333Y-94392666D01*
X139485714Y-94297428D01*
X139485714Y-94106952D01*
X139533333Y-94011714D01*
X140152380Y-93535523D02*
X139485714Y-93535523D01*
X139152380Y-93535523D02*
X139200000Y-93583142D01*
X139247619Y-93535523D01*
X139200000Y-93487904D01*
X139152380Y-93535523D01*
X139247619Y-93535523D01*
X139485714Y-93202190D02*
X139485714Y-92821238D01*
X139152380Y-93059333D02*
X140009523Y-93059333D01*
X140104761Y-93011714D01*
X140152380Y-92916476D01*
X140152380Y-92821238D01*
X140152380Y-92059333D02*
X139628571Y-92059333D01*
X139533333Y-92106952D01*
X139485714Y-92202190D01*
X139485714Y-92392666D01*
X139533333Y-92487904D01*
X140104761Y-92059333D02*
X140152380Y-92154571D01*
X140152380Y-92392666D01*
X140104761Y-92487904D01*
X140009523Y-92535523D01*
X139914285Y-92535523D01*
X139819047Y-92487904D01*
X139771428Y-92392666D01*
X139771428Y-92154571D01*
X139723809Y-92059333D01*
X140152380Y-91440285D02*
X140104761Y-91535523D01*
X140009523Y-91583142D01*
X139152380Y-91583142D01*
%TO.C,P2*%
X149518666Y-96035523D02*
X149518666Y-95559333D01*
X149804380Y-96130761D02*
X148804380Y-95797428D01*
X149804380Y-95464095D01*
X149137714Y-95130761D02*
X149804380Y-95130761D01*
X149232952Y-95130761D02*
X149185333Y-95083142D01*
X149137714Y-94987904D01*
X149137714Y-94845047D01*
X149185333Y-94749809D01*
X149280571Y-94702190D01*
X149804380Y-94702190D01*
X149804380Y-93797428D02*
X149280571Y-93797428D01*
X149185333Y-93845047D01*
X149137714Y-93940285D01*
X149137714Y-94130761D01*
X149185333Y-94226000D01*
X149756761Y-93797428D02*
X149804380Y-93892666D01*
X149804380Y-94130761D01*
X149756761Y-94226000D01*
X149661523Y-94273619D01*
X149566285Y-94273619D01*
X149471047Y-94226000D01*
X149423428Y-94130761D01*
X149423428Y-93892666D01*
X149375809Y-93797428D01*
X149804380Y-93178380D02*
X149756761Y-93273619D01*
X149661523Y-93321238D01*
X148804380Y-93321238D01*
X149804380Y-92654571D02*
X149756761Y-92749809D01*
X149709142Y-92797428D01*
X149613904Y-92845047D01*
X149328190Y-92845047D01*
X149232952Y-92797428D01*
X149185333Y-92749809D01*
X149137714Y-92654571D01*
X149137714Y-92511714D01*
X149185333Y-92416476D01*
X149232952Y-92368857D01*
X149328190Y-92321238D01*
X149613904Y-92321238D01*
X149709142Y-92368857D01*
X149756761Y-92416476D01*
X149804380Y-92511714D01*
X149804380Y-92654571D01*
X149137714Y-91464095D02*
X149947238Y-91464095D01*
X150042476Y-91511714D01*
X150090095Y-91559333D01*
X150137714Y-91654571D01*
X150137714Y-91797428D01*
X150090095Y-91892666D01*
X149756761Y-91464095D02*
X149804380Y-91559333D01*
X149804380Y-91749809D01*
X149756761Y-91845047D01*
X149709142Y-91892666D01*
X149613904Y-91940285D01*
X149328190Y-91940285D01*
X149232952Y-91892666D01*
X149185333Y-91845047D01*
X149137714Y-91749809D01*
X149137714Y-91559333D01*
X149185333Y-91464095D01*
%TD*%
M02*
