%TF.GenerationSoftware,KiCad,Pcbnew,(5.1.6)-1*%
%TF.CreationDate,2020-07-27T07:25:15+08:00*%
%TF.ProjectId,rot-kb,726f742d-6b62-42e6-9b69-6361645f7063,rev?*%
%TF.SameCoordinates,Original*%
%TF.FileFunction,Paste,Top*%
%TF.FilePolarity,Positive*%
%FSLAX46Y46*%
G04 Gerber Fmt 4.6, Leading zero omitted, Abs format (unit mm)*
G04 Created by KiCad (PCBNEW (5.1.6)-1) date 2020-07-27 07:25:15*
%MOMM*%
%LPD*%
G01*
G04 APERTURE LIST*
%ADD10R,1.000000X1.000000*%
%ADD11R,2.200000X1.400000*%
%ADD12R,1.400000X1.800000*%
%ADD13R,1.600000X1.400000*%
%ADD14R,1.600000X0.700000*%
G04 APERTURE END LIST*
%TO.C,R4*%
G36*
G01*
X148750000Y-99256250D02*
X148750000Y-98343750D01*
G75*
G02*
X148993750Y-98100000I243750J0D01*
G01*
X149481250Y-98100000D01*
G75*
G02*
X149725000Y-98343750I0J-243750D01*
G01*
X149725000Y-99256250D01*
G75*
G02*
X149481250Y-99500000I-243750J0D01*
G01*
X148993750Y-99500000D01*
G75*
G02*
X148750000Y-99256250I0J243750D01*
G01*
G37*
G36*
G01*
X146875000Y-99256250D02*
X146875000Y-98343750D01*
G75*
G02*
X147118750Y-98100000I243750J0D01*
G01*
X147606250Y-98100000D01*
G75*
G02*
X147850000Y-98343750I0J-243750D01*
G01*
X147850000Y-99256250D01*
G75*
G02*
X147606250Y-99500000I-243750J0D01*
G01*
X147118750Y-99500000D01*
G75*
G02*
X146875000Y-99256250I0J243750D01*
G01*
G37*
%TD*%
%TO.C,R3*%
G36*
G01*
X147850000Y-90743750D02*
X147850000Y-91656250D01*
G75*
G02*
X147606250Y-91900000I-243750J0D01*
G01*
X147118750Y-91900000D01*
G75*
G02*
X146875000Y-91656250I0J243750D01*
G01*
X146875000Y-90743750D01*
G75*
G02*
X147118750Y-90500000I243750J0D01*
G01*
X147606250Y-90500000D01*
G75*
G02*
X147850000Y-90743750I0J-243750D01*
G01*
G37*
G36*
G01*
X149725000Y-90743750D02*
X149725000Y-91656250D01*
G75*
G02*
X149481250Y-91900000I-243750J0D01*
G01*
X148993750Y-91900000D01*
G75*
G02*
X148750000Y-91656250I0J243750D01*
G01*
X148750000Y-90743750D01*
G75*
G02*
X148993750Y-90500000I243750J0D01*
G01*
X149481250Y-90500000D01*
G75*
G02*
X149725000Y-90743750I0J-243750D01*
G01*
G37*
%TD*%
%TO.C,R2*%
G36*
G01*
X148750000Y-73556250D02*
X148750000Y-72643750D01*
G75*
G02*
X148993750Y-72400000I243750J0D01*
G01*
X149481250Y-72400000D01*
G75*
G02*
X149725000Y-72643750I0J-243750D01*
G01*
X149725000Y-73556250D01*
G75*
G02*
X149481250Y-73800000I-243750J0D01*
G01*
X148993750Y-73800000D01*
G75*
G02*
X148750000Y-73556250I0J243750D01*
G01*
G37*
G36*
G01*
X146875000Y-73556250D02*
X146875000Y-72643750D01*
G75*
G02*
X147118750Y-72400000I243750J0D01*
G01*
X147606250Y-72400000D01*
G75*
G02*
X147850000Y-72643750I0J-243750D01*
G01*
X147850000Y-73556250D01*
G75*
G02*
X147606250Y-73800000I-243750J0D01*
G01*
X147118750Y-73800000D01*
G75*
G02*
X146875000Y-73556250I0J243750D01*
G01*
G37*
%TD*%
D10*
%TO.C,D12*%
X133000000Y-114750000D03*
X133000000Y-117250000D03*
%TD*%
%TO.C,D11*%
X133000000Y-38250000D03*
X133000000Y-35750000D03*
%TD*%
%TO.C,D10*%
X133000000Y-93250000D03*
X133000000Y-90750000D03*
%TD*%
%TO.C,D9*%
X129500000Y-71250000D03*
X129500000Y-68750000D03*
%TD*%
%TO.C,D8*%
X112000000Y-120250000D03*
X112000000Y-117750000D03*
%TD*%
%TO.C,D7*%
X112000000Y-109750000D03*
X112000000Y-112250000D03*
%TD*%
%TO.C,D6*%
X112000000Y-38250000D03*
X112000000Y-35750000D03*
%TD*%
%TO.C,D5*%
X112000000Y-27750000D03*
X112000000Y-30250000D03*
%TD*%
%TO.C,D4*%
X112000000Y-93250000D03*
X112000000Y-90750000D03*
%TD*%
%TO.C,D3*%
X112000000Y-81750000D03*
X112000000Y-84250000D03*
%TD*%
%TO.C,D2*%
X112000000Y-65250000D03*
X112000000Y-62750000D03*
%TD*%
%TO.C,D1*%
X112000000Y-54750000D03*
X112000000Y-57250000D03*
%TD*%
%TO.C,C1*%
G36*
G01*
X140912000Y-68020250D02*
X140912000Y-67107750D01*
G75*
G02*
X141155750Y-66864000I243750J0D01*
G01*
X141643250Y-66864000D01*
G75*
G02*
X141887000Y-67107750I0J-243750D01*
G01*
X141887000Y-68020250D01*
G75*
G02*
X141643250Y-68264000I-243750J0D01*
G01*
X141155750Y-68264000D01*
G75*
G02*
X140912000Y-68020250I0J243750D01*
G01*
G37*
G36*
G01*
X139037000Y-68020250D02*
X139037000Y-67107750D01*
G75*
G02*
X139280750Y-66864000I243750J0D01*
G01*
X139768250Y-66864000D01*
G75*
G02*
X140012000Y-67107750I0J-243750D01*
G01*
X140012000Y-68020250D01*
G75*
G02*
X139768250Y-68264000I-243750J0D01*
G01*
X139280750Y-68264000D01*
G75*
G02*
X139037000Y-68020250I0J243750D01*
G01*
G37*
%TD*%
%TO.C,R1*%
G36*
G01*
X148750000Y-95956250D02*
X148750000Y-95043750D01*
G75*
G02*
X148993750Y-94800000I243750J0D01*
G01*
X149481250Y-94800000D01*
G75*
G02*
X149725000Y-95043750I0J-243750D01*
G01*
X149725000Y-95956250D01*
G75*
G02*
X149481250Y-96200000I-243750J0D01*
G01*
X148993750Y-96200000D01*
G75*
G02*
X148750000Y-95956250I0J243750D01*
G01*
G37*
G36*
G01*
X146875000Y-95956250D02*
X146875000Y-95043750D01*
G75*
G02*
X147118750Y-94800000I243750J0D01*
G01*
X147606250Y-94800000D01*
G75*
G02*
X147850000Y-95043750I0J-243750D01*
G01*
X147850000Y-95956250D01*
G75*
G02*
X147606250Y-96200000I-243750J0D01*
G01*
X147118750Y-96200000D01*
G75*
G02*
X146875000Y-95956250I0J243750D01*
G01*
G37*
%TD*%
D11*
%TO.C,P7*%
X147770000Y-48880000D03*
D12*
X138170000Y-49780000D03*
D11*
X147770000Y-64580000D03*
D13*
X138270000Y-64580000D03*
D14*
X137670000Y-63280000D03*
X137670000Y-62180000D03*
X137670000Y-61080000D03*
X137670000Y-59980000D03*
X137670000Y-58880000D03*
X137670000Y-57780000D03*
X137670000Y-56680000D03*
X137670000Y-55580000D03*
X137670000Y-54480000D03*
%TD*%
M02*
