M48
; DRILL file {KiCad (5.1.6)-1} date 07/26/20 07:53:45
; FORMAT={-:-/ absolute / inch / decimal}
; #@! TF.CreationDate,2020-07-26T07:53:45+08:00
; #@! TF.GenerationSoftware,Kicad,Pcbnew,(5.1.6)-1
; #@! TF.FileFunction,Plated,1,2,PTH
FMAT,2
INCH
T1C0.0157
T2C0.0236
T3C0.0394
T4C0.0400
T5C0.0472
T6C0.0500
T7C0.0591
T8C0.1693
%
G90
G05
T1
X4.6547Y-3.7882
X4.8976Y-2.3622
X5.1339Y-3.8898
X5.215Y-3.989
X5.2858Y-3.8992
X5.3681Y-2.2335
X5.3831Y-1.9606
X5.4638Y-2.5925
X5.472Y-2.3701
X5.8996Y-1.9209
X5.9055Y-2.5461
T2
X5.9888Y-1.1268
X6.026Y-1.037
X6.026Y-1.2166
X6.1157Y-0.9998
X6.1157Y-1.2537
X6.2055Y-1.037
X6.2055Y-1.2166
X6.2427Y-1.1268
X5.9888Y-4.7
X6.026Y-4.6102
X6.026Y-4.7898
X6.1157Y-4.573
X6.1157Y-4.827
X6.2055Y-4.6102
X6.2055Y-4.7898
X6.2427Y-4.7
T3
X5.4528Y-1.6732
X5.5528Y-1.6732
X5.6528Y-1.6732
X5.7528Y-1.6732
X4.5276Y-2.2638
X4.5276Y-2.3622
X4.5276Y-2.4606
X5.0984Y-2.2638
X5.0984Y-2.4606
X4.5276Y-3.3465
X4.5276Y-3.4449
X4.5276Y-3.5433
X5.0984Y-3.3465
X5.0984Y-3.5433
X4.5276Y-1.1811
X4.5276Y-1.2795
X4.5276Y-1.378
X5.0984Y-1.1811
X5.0984Y-1.378
X4.5276Y-4.4291
X4.5276Y-4.5276
X4.5276Y-4.626
X5.0984Y-4.4291
X5.0984Y-4.626
T4
X5.995Y-2.79
X5.995Y-2.89
X5.995Y-2.99
X5.995Y-3.09
X5.995Y-3.19
X5.995Y-3.29
X5.995Y-3.39
X5.995Y-3.49
X5.995Y-3.59
X5.995Y-3.69
X5.995Y-3.79
X5.995Y-3.89
X5.995Y-3.99
X5.995Y-4.09
X5.995Y-4.19
X5.995Y-4.29
X5.995Y-4.39
X5.395Y-2.79
X5.395Y-2.89
X5.395Y-2.99
X5.395Y-3.09
X5.395Y-3.19
X5.395Y-3.29
X5.395Y-3.39
X5.395Y-3.49
X5.395Y-3.59
X5.395Y-3.69
X5.395Y-3.79
X5.395Y-3.89
X5.395Y-3.99
X5.395Y-4.09
X5.395Y-4.19
X5.395Y-4.29
X5.395Y-4.39
X5.487Y-1.0933
X5.487Y-1.1933
X5.587Y-1.0933
X5.587Y-1.1933
X5.687Y-1.0933
X5.687Y-1.1933
T5
X6.1193Y-1.4335
X6.1193Y-1.5835
X6.1193Y-1.7335
T6
X5.995Y-2.69
X5.995Y-4.49
X5.395Y-4.49
X5.395Y-2.69
T8
X6.1157Y-1.1268
X6.1157Y-4.7
T7
G00X4.7972Y-2.1417
M15
G01X4.8484Y-2.1417
M16
G05
G00X4.7972Y-2.5827
M15
G01X4.8484Y-2.5827
M16
G05
G00X4.7972Y-3.2244
M15
G01X4.8484Y-3.2244
M16
G05
G00X4.7972Y-3.6654
M15
G01X4.8484Y-3.6654
M16
G05
G00X4.7972Y-1.0591
M15
G01X4.8484Y-1.0591
M16
G05
G00X4.7972Y-1.5
M15
G01X4.8484Y-1.5
M16
G05
G00X4.7972Y-4.3071
M15
G01X4.8484Y-4.3071
M16
G05
G00X4.7972Y-4.748
M15
G01X4.8484Y-4.748
M16
G05
T0
M30
