%TF.GenerationSoftware,KiCad,Pcbnew,(5.1.6)-1*%
%TF.CreationDate,2020-07-26T07:53:42+08:00*%
%TF.ProjectId,rot-kb,726f742d-6b62-42e6-9b69-6361645f7063,rev?*%
%TF.SameCoordinates,Original*%
%TF.FileFunction,Soldermask,Top*%
%TF.FilePolarity,Negative*%
%FSLAX46Y46*%
G04 Gerber Fmt 4.6, Leading zero omitted, Abs format (unit mm)*
G04 Created by KiCad (PCBNEW (5.1.6)-1) date 2020-07-26 07:53:42*
%MOMM*%
%LPD*%
G01*
G04 APERTURE LIST*
%ADD10R,1.000000X1.000000*%
%ADD11O,3.600000X1.800000*%
%ADD12R,2.000000X2.000000*%
%ADD13C,2.000000*%
%ADD14R,3.200000X2.000000*%
%ADD15C,0.900000*%
%ADD16C,8.600000*%
%ADD17R,2.200000X1.400000*%
%ADD18R,1.400000X1.800000*%
%ADD19R,1.600000X1.400000*%
%ADD20R,1.600000X0.700000*%
%ADD21O,1.700000X1.700000*%
%ADD22R,1.700000X1.700000*%
%ADD23O,1.727200X1.727200*%
%ADD24R,1.727200X1.727200*%
%ADD25O,2.032000X1.727200*%
%ADD26C,2.032000*%
G04 APERTURE END LIST*
D10*
%TO.C,D12*%
X133000000Y-114750000D03*
X133000000Y-117250000D03*
%TD*%
%TO.C,D11*%
X133000000Y-38250000D03*
X133000000Y-35750000D03*
%TD*%
%TO.C,D10*%
X133000000Y-93250000D03*
X133000000Y-90750000D03*
%TD*%
%TO.C,D9*%
X129500000Y-71250000D03*
X129500000Y-68750000D03*
%TD*%
%TO.C,D8*%
X112000000Y-120250000D03*
X112000000Y-117750000D03*
%TD*%
%TO.C,D7*%
X112000000Y-109750000D03*
X112000000Y-112250000D03*
%TD*%
%TO.C,D6*%
X112000000Y-38250000D03*
X112000000Y-35750000D03*
%TD*%
%TO.C,D5*%
X112000000Y-27750000D03*
X112000000Y-30250000D03*
%TD*%
%TO.C,D4*%
X112000000Y-93250000D03*
X112000000Y-90750000D03*
%TD*%
%TO.C,D3*%
X112000000Y-81750000D03*
X112000000Y-84250000D03*
%TD*%
%TO.C,D2*%
X112000000Y-65250000D03*
X112000000Y-62750000D03*
%TD*%
%TO.C,D1*%
X112000000Y-54750000D03*
X112000000Y-57250000D03*
%TD*%
%TO.C,C1*%
G36*
G01*
X140912000Y-68020250D02*
X140912000Y-67107750D01*
G75*
G02*
X141155750Y-66864000I243750J0D01*
G01*
X141643250Y-66864000D01*
G75*
G02*
X141887000Y-67107750I0J-243750D01*
G01*
X141887000Y-68020250D01*
G75*
G02*
X141643250Y-68264000I-243750J0D01*
G01*
X141155750Y-68264000D01*
G75*
G02*
X140912000Y-68020250I0J243750D01*
G01*
G37*
G36*
G01*
X139037000Y-68020250D02*
X139037000Y-67107750D01*
G75*
G02*
X139280750Y-66864000I243750J0D01*
G01*
X139768250Y-66864000D01*
G75*
G02*
X140012000Y-67107750I0J-243750D01*
G01*
X140012000Y-68020250D01*
G75*
G02*
X139768250Y-68264000I-243750J0D01*
G01*
X139280750Y-68264000D01*
G75*
G02*
X139037000Y-68020250I0J243750D01*
G01*
G37*
%TD*%
D11*
%TO.C,J3*%
X155430000Y-44030000D03*
X155430000Y-40220000D03*
G36*
G01*
X153880000Y-35510000D02*
X156980000Y-35510000D01*
G75*
G02*
X157230000Y-35760000I0J-250000D01*
G01*
X157230000Y-37060000D01*
G75*
G02*
X156980000Y-37310000I-250000J0D01*
G01*
X153880000Y-37310000D01*
G75*
G02*
X153630000Y-37060000I0J250000D01*
G01*
X153630000Y-35760000D01*
G75*
G02*
X153880000Y-35510000I250000J0D01*
G01*
G37*
%TD*%
D12*
%TO.C,SW4*%
X115000000Y-30000000D03*
D13*
X115000000Y-32500000D03*
X115000000Y-35000000D03*
D14*
X122500000Y-26900000D03*
X122500000Y-38100000D03*
D13*
X129500000Y-30000000D03*
X129500000Y-35000000D03*
%TD*%
D12*
%TO.C,SW3*%
X115000000Y-85000000D03*
D13*
X115000000Y-87500000D03*
X115000000Y-90000000D03*
D14*
X122500000Y-81900000D03*
X122500000Y-93100000D03*
D13*
X129500000Y-85000000D03*
X129500000Y-90000000D03*
%TD*%
D12*
%TO.C,SW2*%
X115000000Y-57500000D03*
D13*
X115000000Y-60000000D03*
X115000000Y-62500000D03*
D14*
X122500000Y-54400000D03*
X122500000Y-65600000D03*
D13*
X129500000Y-57500000D03*
X129500000Y-62500000D03*
%TD*%
D15*
%TO.C,H2*%
X157620419Y-117099581D03*
X155340000Y-116155000D03*
X153059581Y-117099581D03*
X152115000Y-119380000D03*
X153059581Y-121660419D03*
X155340000Y-122605000D03*
X157620419Y-121660419D03*
X158565000Y-119380000D03*
D16*
X155340000Y-119380000D03*
%TD*%
D15*
%TO.C,H1*%
X157620419Y-26339581D03*
X155340000Y-25395000D03*
X153059581Y-26339581D03*
X152115000Y-28620000D03*
X153059581Y-30900419D03*
X155340000Y-31845000D03*
X157620419Y-30900419D03*
X158565000Y-28620000D03*
D16*
X155340000Y-28620000D03*
%TD*%
D12*
%TO.C,SW1*%
X115000000Y-112500000D03*
D13*
X115000000Y-115000000D03*
X115000000Y-117500000D03*
D14*
X122500000Y-109400000D03*
X122500000Y-120600000D03*
D13*
X129500000Y-112500000D03*
X129500000Y-117500000D03*
%TD*%
%TO.C,R1*%
G36*
G01*
X155970000Y-72903750D02*
X155970000Y-73816250D01*
G75*
G02*
X155726250Y-74060000I-243750J0D01*
G01*
X155238750Y-74060000D01*
G75*
G02*
X154995000Y-73816250I0J243750D01*
G01*
X154995000Y-72903750D01*
G75*
G02*
X155238750Y-72660000I243750J0D01*
G01*
X155726250Y-72660000D01*
G75*
G02*
X155970000Y-72903750I0J-243750D01*
G01*
G37*
G36*
G01*
X157845000Y-72903750D02*
X157845000Y-73816250D01*
G75*
G02*
X157601250Y-74060000I-243750J0D01*
G01*
X157113750Y-74060000D01*
G75*
G02*
X156870000Y-73816250I0J243750D01*
G01*
X156870000Y-72903750D01*
G75*
G02*
X157113750Y-72660000I243750J0D01*
G01*
X157601250Y-72660000D01*
G75*
G02*
X157845000Y-72903750I0J-243750D01*
G01*
G37*
%TD*%
D15*
%TO.C,P7*%
X148170000Y-53680000D03*
X148170000Y-61680000D03*
D17*
X147770000Y-48880000D03*
D18*
X138170000Y-49780000D03*
D17*
X147770000Y-64580000D03*
D19*
X138270000Y-64580000D03*
D20*
X137670000Y-63280000D03*
X137670000Y-62180000D03*
X137670000Y-61080000D03*
X137670000Y-59980000D03*
X137670000Y-58880000D03*
X137670000Y-57780000D03*
X137670000Y-56680000D03*
X137670000Y-55580000D03*
X137670000Y-54480000D03*
%TD*%
D21*
%TO.C,J2*%
X146120000Y-42500000D03*
X143580000Y-42500000D03*
X141040000Y-42500000D03*
D22*
X138500000Y-42500000D03*
%TD*%
D23*
%TO.C,J1*%
X139370000Y-30310000D03*
X139370000Y-27770000D03*
X141910000Y-30310000D03*
X141910000Y-27770000D03*
X144450000Y-30310000D03*
D24*
X144450000Y-27770000D03*
%TD*%
D25*
%TO.C,P1*%
X137033000Y-70866000D03*
X137033000Y-73406000D03*
X137033000Y-75946000D03*
X137033000Y-78486000D03*
X137033000Y-81026000D03*
X137033000Y-83566000D03*
X137033000Y-86106000D03*
X137033000Y-88646000D03*
X137033000Y-91186000D03*
X137033000Y-93726000D03*
X137033000Y-96266000D03*
X137033000Y-98806000D03*
X137033000Y-101346000D03*
X137033000Y-103886000D03*
X137033000Y-106426000D03*
X137033000Y-108966000D03*
X137033000Y-111506000D03*
%TD*%
%TO.C,P2*%
X152273000Y-70866000D03*
X152273000Y-73406000D03*
X152273000Y-75946000D03*
X152273000Y-78486000D03*
X152273000Y-81026000D03*
X152273000Y-83566000D03*
X152273000Y-86106000D03*
X152273000Y-88646000D03*
X152273000Y-91186000D03*
X152273000Y-93726000D03*
X152273000Y-96266000D03*
X152273000Y-98806000D03*
X152273000Y-101346000D03*
X152273000Y-103886000D03*
X152273000Y-106426000D03*
X152273000Y-108966000D03*
X152273000Y-111506000D03*
%TD*%
D26*
%TO.C,P3*%
X137033000Y-68326000D03*
%TD*%
%TO.C,P4*%
X137033000Y-114046000D03*
%TD*%
%TO.C,P5*%
X152273000Y-114046000D03*
%TD*%
%TO.C,P6*%
X152273000Y-68326000D03*
%TD*%
M02*
